G04 EAGLE Gerber RS-274X export*
G75*
%MOMM*%
%FSLAX34Y34*%
%LPD*%
%INBottom Copper*%
%IPPOS*%
%AMOC8*
5,1,8,0,0,1.08239X$1,22.5*%
G01*
G04 Define Apertures*
%ADD10C,1.400000*%
%ADD11C,1.581000*%
%ADD12C,1.800000*%
%ADD13C,1.430000*%
%ADD14P,2.74927X8X202.5*%
%ADD15P,2.74927X8X22.5*%
%ADD16R,1.108000X1.108000*%
%ADD17C,1.108000*%
%ADD18C,1.308000*%
%ADD19C,1.530000*%
%ADD20R,1.530000X1.530000*%
%ADD21R,1.178000X1.178000*%
%ADD22C,1.178000*%
%ADD23R,1.308000X1.308000*%
%ADD24R,1.508000X1.508000*%
%ADD25C,1.508000*%
%ADD26R,1.348000X1.348000*%
%ADD27C,1.348000*%
%ADD28P,2.74927X8X292.5*%
%ADD29P,1.42962X8X202.5*%
%ADD30C,0.700000*%
%ADD31C,1.206400*%
D10*
X2040900Y-669500D03*
X2040900Y-614500D03*
X1481600Y-961300D03*
X1481600Y-906300D03*
X1365200Y-904500D03*
X1365200Y-959500D03*
X2040900Y-69500D03*
X2040900Y-14500D03*
X2040900Y-269500D03*
X2040900Y-214500D03*
X2040900Y-469500D03*
X2040900Y-414500D03*
D11*
X1714705Y-71300D03*
X1714705Y-45900D03*
X1714705Y-271300D03*
X1714705Y-245900D03*
X1714705Y-471300D03*
X1714705Y-445900D03*
X1714705Y-671300D03*
X1714705Y-645900D03*
X1964705Y-851300D03*
X1964705Y-825900D03*
D12*
X448850Y-169900D03*
X448850Y-119100D03*
X448850Y-144500D03*
X2180200Y-532900D03*
X2180200Y-507500D03*
X2182400Y-732900D03*
X2182400Y-707500D03*
X2181400Y-952198D03*
X2181400Y-926798D03*
X1213600Y-778600D03*
X1213600Y-753200D03*
X448850Y-299900D03*
X448850Y-249100D03*
X448850Y-274500D03*
X448850Y-429900D03*
X448850Y-379100D03*
X448850Y-404500D03*
X448850Y-559900D03*
X448850Y-509100D03*
X448850Y-534500D03*
X448850Y-649900D03*
X448850Y-675300D03*
X448850Y-772900D03*
X448850Y-798300D03*
X1583600Y-914678D03*
X1583600Y-940078D03*
X2175800Y-132900D03*
X2175800Y-107500D03*
X2178000Y-332900D03*
X2178000Y-307500D03*
D13*
X548000Y-107000D03*
X665600Y-107000D03*
X996800Y-199600D03*
X996800Y-82000D03*
X1043600Y-199600D03*
X1043600Y-82000D03*
X1089517Y-199600D03*
X1089517Y-82000D03*
D14*
X1890065Y-135990D03*
X1737665Y-135990D03*
X1890700Y-332376D03*
X1738300Y-332376D03*
X1887100Y-525960D03*
X1734700Y-525960D03*
D15*
X1944200Y-135990D03*
X2096600Y-135990D03*
X1943700Y-328045D03*
X2096100Y-328045D03*
X1943200Y-528045D03*
X2095600Y-528045D03*
D14*
X1887600Y-733500D03*
X1735200Y-733500D03*
D13*
X548000Y-235000D03*
X665600Y-235000D03*
D15*
X1944700Y-728045D03*
X2097100Y-728045D03*
D14*
X2097100Y-939498D03*
X1944700Y-939498D03*
D13*
X548000Y-367000D03*
X665600Y-367000D03*
X548000Y-497000D03*
X665600Y-497000D03*
X665600Y-626100D03*
X548000Y-626100D03*
X665600Y-757000D03*
X548000Y-757000D03*
X846800Y-199600D03*
X846800Y-82000D03*
X896800Y-199600D03*
X896800Y-82000D03*
X946800Y-199600D03*
X946800Y-82000D03*
D16*
X873100Y-282200D03*
D17*
X873100Y-307600D03*
X873100Y-333000D03*
X873100Y-358400D03*
X873100Y-383800D03*
X873100Y-409200D03*
X873100Y-434600D03*
X873100Y-460000D03*
X873100Y-485400D03*
X873100Y-510800D03*
X873100Y-536200D03*
X873100Y-561600D03*
X873100Y-587000D03*
X873100Y-612400D03*
X873100Y-637800D03*
X1127100Y-637800D03*
X1127100Y-612400D03*
X1127100Y-587000D03*
X1127100Y-561600D03*
X1127100Y-536200D03*
X1127100Y-510800D03*
X1127100Y-485400D03*
X1127100Y-460000D03*
X1127100Y-434600D03*
X1127100Y-409200D03*
X1127100Y-383800D03*
X1127100Y-358400D03*
X1127100Y-333000D03*
X1127100Y-307600D03*
X1127100Y-282200D03*
D18*
X1964900Y-3900D03*
X1863300Y-3900D03*
X1837900Y-3900D03*
X1837900Y-80100D03*
X1863300Y-80100D03*
X1964900Y-80100D03*
X1964900Y-203900D03*
X1863300Y-203900D03*
X1837900Y-203900D03*
X1837900Y-280100D03*
X1863300Y-280100D03*
X1964900Y-280100D03*
X1964900Y-401500D03*
X1863300Y-401500D03*
X1837900Y-401500D03*
X1837900Y-477700D03*
X1863300Y-477700D03*
X1964900Y-477700D03*
X1964900Y-601500D03*
X1863300Y-601500D03*
X1837900Y-601500D03*
X1837900Y-677700D03*
X1863300Y-677700D03*
X1964900Y-677700D03*
X2204900Y-799145D03*
X2103300Y-799145D03*
X2077900Y-799145D03*
X2077900Y-875345D03*
X2103300Y-875345D03*
X2204900Y-875345D03*
D19*
X1215300Y-694400D03*
X1240700Y-694400D03*
X1266100Y-694400D03*
D20*
X1189900Y-694400D03*
D19*
X1215300Y-282200D03*
X1240700Y-282200D03*
X1266100Y-282200D03*
X1189900Y-282200D03*
D21*
X1348500Y-150100D03*
D22*
X1373900Y-150100D03*
X1399300Y-150100D03*
X1424700Y-150100D03*
X1450100Y-150100D03*
X1475500Y-150100D03*
X1500900Y-150100D03*
X1526300Y-150100D03*
X1551700Y-150100D03*
X1551700Y-65100D03*
X1526300Y-65100D03*
X1500900Y-65100D03*
X1475500Y-65100D03*
X1450100Y-65100D03*
X1424700Y-65100D03*
X1399300Y-65100D03*
X1373900Y-65100D03*
X1348500Y-65100D03*
D18*
X711900Y-132338D03*
X788100Y-132338D03*
D23*
X711900Y-106938D03*
D18*
X788100Y-106938D03*
X711900Y-157738D03*
X788100Y-157738D03*
X711900Y-260000D03*
X788100Y-260000D03*
D23*
X711900Y-234600D03*
D18*
X788100Y-234600D03*
X711900Y-285400D03*
X788100Y-285400D03*
X711900Y-390000D03*
X788100Y-390000D03*
D23*
X711900Y-364600D03*
D18*
X788100Y-364600D03*
X711900Y-415400D03*
X788100Y-415400D03*
X711900Y-520000D03*
X788100Y-520000D03*
D23*
X711900Y-494600D03*
D18*
X788100Y-494600D03*
X711900Y-545400D03*
X788100Y-545400D03*
X711900Y-650000D03*
X788100Y-650000D03*
D23*
X711900Y-624600D03*
D18*
X788100Y-624600D03*
X711900Y-675400D03*
X788100Y-675400D03*
X711900Y-780000D03*
X788100Y-780000D03*
D23*
X711900Y-754600D03*
D18*
X788100Y-754600D03*
X711900Y-805400D03*
X788100Y-805400D03*
D15*
X523800Y-164004D03*
X676200Y-164004D03*
X523800Y-290000D03*
X676200Y-290000D03*
X523800Y-430000D03*
X676200Y-430000D03*
X523800Y-560000D03*
X676200Y-560000D03*
X523800Y-690000D03*
X676200Y-690000D03*
X523800Y-820000D03*
X676200Y-820000D03*
X1143800Y-220000D03*
X1296200Y-220000D03*
X1143800Y-140000D03*
X1296200Y-140000D03*
D24*
X891000Y-848100D03*
D25*
X891000Y-822700D03*
X891000Y-771900D03*
X891000Y-797300D03*
D12*
X950000Y-810000D03*
X950000Y-784600D03*
D24*
X1780000Y-83250D03*
D25*
X1780000Y3250D03*
D24*
X1780000Y-283250D03*
D25*
X1780000Y-196750D03*
D24*
X1780000Y-472170D03*
D25*
X1780000Y-385670D03*
D24*
X1780000Y-676250D03*
D25*
X1780000Y-589750D03*
D24*
X2030000Y-883250D03*
D25*
X2030000Y-796750D03*
D26*
X1382700Y-261900D03*
D27*
X1357300Y-261900D03*
X1357300Y-338100D03*
X1382700Y-338100D03*
D15*
X1423800Y-270000D03*
X1576200Y-270000D03*
D14*
X1576200Y-340000D03*
X1423800Y-340000D03*
D26*
X1382700Y-391900D03*
D27*
X1357300Y-391900D03*
X1357300Y-468100D03*
X1382700Y-468100D03*
D15*
X1423800Y-400000D03*
X1576200Y-400000D03*
D14*
X1576200Y-470000D03*
X1423800Y-470000D03*
D26*
X1382700Y-521900D03*
D27*
X1357300Y-521900D03*
X1357300Y-598100D03*
X1382700Y-598100D03*
D15*
X1423800Y-527900D03*
X1576200Y-527900D03*
D14*
X1576200Y-599072D03*
X1423800Y-599072D03*
D26*
X1382700Y-651900D03*
D27*
X1357300Y-651900D03*
X1357300Y-728100D03*
X1382700Y-728100D03*
D15*
X1423800Y-657900D03*
X1576200Y-657900D03*
D14*
X1576200Y-724878D03*
X1423800Y-724878D03*
D26*
X1381712Y-780912D03*
D27*
X1356312Y-780912D03*
X1356312Y-857112D03*
X1381712Y-857112D03*
D15*
X1423800Y-790000D03*
X1576200Y-790000D03*
D14*
X1576200Y-850000D03*
X1423800Y-850000D03*
D18*
X1903500Y-801900D03*
X1801900Y-801900D03*
X1776500Y-801900D03*
X1776500Y-878100D03*
X1801900Y-878100D03*
X1903500Y-878100D03*
D24*
X1730000Y-796750D03*
D25*
X1730000Y-883250D03*
D28*
X1650000Y-673800D03*
X1650000Y-826200D03*
D11*
X1667300Y-880000D03*
X1692700Y-880000D03*
D15*
X1667655Y-939498D03*
X1820055Y-939498D03*
D29*
X1867300Y-934418D03*
X1880000Y-953468D03*
X1892700Y-934418D03*
D30*
X1600000Y-293800D02*
X1576200Y-270000D01*
X1600000Y-293800D02*
X1600000Y-376200D01*
X1576200Y-400000D01*
X1600000Y-423800D01*
X1600000Y-504100D01*
X1576200Y-527900D01*
X1598300Y-550000D01*
X1600000Y-550000D01*
X1600000Y-634100D01*
X1576200Y-657900D01*
X1594900Y-676600D01*
X1594900Y-771300D01*
X1576200Y-790000D01*
X788100Y-157738D02*
X760000Y-185838D01*
X760000Y-260000D01*
X785400Y-285400D01*
X788100Y-285400D01*
X760000Y-313500D01*
X760000Y-387300D01*
X788100Y-415400D01*
X750000Y-453500D01*
X750000Y-507300D01*
X788100Y-545400D01*
X760000Y-573500D01*
X760000Y-647300D01*
X788100Y-675400D01*
X760000Y-703500D01*
X760000Y-780000D01*
X785400Y-805400D01*
X788100Y-805400D01*
X788100Y-157738D02*
X787738Y-157738D01*
X760000Y-130000D01*
X760000Y-100000D01*
X800000Y-60000D01*
X1090000Y-60000D01*
X1143800Y-113800D01*
X1143800Y-140000D01*
X1127100Y-612400D02*
X1162400Y-612400D01*
X1190000Y-640000D01*
X1190000Y-660000D01*
X1190000Y-694300D01*
X1189900Y-694400D01*
X849150Y-779150D02*
X822900Y-805400D01*
X788100Y-805400D01*
X849150Y-636350D02*
X873100Y-612400D01*
X849150Y-636350D02*
X849150Y-779150D01*
X873100Y-612400D02*
X1002400Y-612400D01*
X1050000Y-660000D01*
X1190000Y-660000D01*
X1576200Y-270000D02*
X1580000Y-266200D01*
X1580000Y-180000D01*
D31*
X1580000Y-180000D03*
X1300000Y-90000D03*
D30*
X1193800Y-90000D01*
X1143800Y-140000D01*
X872850Y-779150D02*
X891000Y-797300D01*
X872850Y-779150D02*
X849150Y-779150D01*
X1714705Y-113030D02*
X1714705Y-71300D01*
X1714705Y-113030D02*
X1737665Y-135990D01*
X1714705Y-45900D02*
X1829100Y-45900D01*
X1863300Y-80100D01*
X1423600Y10000D02*
X1348500Y-65100D01*
X1423600Y10000D02*
X1670000Y10000D01*
X1714705Y-34705D01*
X1714705Y-45900D01*
X1714705Y-271300D02*
X1714705Y-308781D01*
X1738300Y-332376D01*
X1714705Y-471300D02*
X1714705Y-505965D01*
X1734700Y-525960D01*
X1714705Y-245900D02*
X1829100Y-245900D01*
X1863300Y-280100D01*
X1429000Y-10000D02*
X1373900Y-65100D01*
X1429000Y-10000D02*
X1650000Y-10000D01*
X1690000Y-50000D01*
X1690000Y-221195D01*
X1714705Y-245900D01*
X1730605Y-430000D02*
X1714705Y-445900D01*
X1730605Y-430000D02*
X1780000Y-430000D01*
X1815160Y-465160D01*
X1855634Y-477700D02*
X1863300Y-477700D01*
X1843094Y-465160D02*
X1815160Y-465160D01*
X1843094Y-465160D02*
X1855634Y-477700D01*
X1630000Y-30000D02*
X1434400Y-30000D01*
X1630000Y-30000D02*
X1670000Y-70000D01*
X1670000Y-401195D01*
X1714705Y-445900D01*
X1399300Y-65100D02*
X1434400Y-30000D01*
X2077390Y-135990D02*
X2096600Y-135990D01*
X2077390Y-135990D02*
X2040900Y-99500D01*
X2040900Y-69500D01*
X2025400Y-30000D02*
X2040900Y-14500D01*
X2175800Y-75843D02*
X2175800Y-107500D01*
X2025400Y-30000D02*
X1860000Y-30000D01*
X1837900Y-7900D01*
X1837900Y-3900D01*
X2040900Y-14500D02*
X2080300Y-14500D01*
X2141643Y-75843D02*
X2175800Y-75843D01*
X2141643Y-75843D02*
X2080300Y-14500D01*
X2040900Y-269500D02*
X2060000Y-288600D01*
X2060000Y-320000D01*
X2068045Y-328045D01*
X2096100Y-328045D01*
X2040900Y-469500D02*
X2060000Y-488600D01*
X2060000Y-510000D01*
X2078045Y-528045D01*
X2095600Y-528045D01*
X2178000Y-307500D02*
X2178000Y-258043D01*
X2040900Y-214500D02*
X1996400Y-170000D01*
X1980000Y-170000D01*
D31*
X1980000Y-170000D03*
X1800000Y-170000D03*
D30*
X1817900Y-203900D02*
X1837900Y-203900D01*
X1817900Y-203900D02*
X1800000Y-186000D01*
X1800000Y-170000D01*
X2040900Y-214500D02*
X2134457Y-214500D01*
X2178000Y-258043D01*
X2065357Y-390043D02*
X2040900Y-414500D01*
X2180200Y-460243D02*
X2180200Y-507500D01*
X1837900Y-401500D02*
X1810000Y-373600D01*
X1810000Y-370000D01*
D31*
X1810000Y-370000D03*
X1990000Y-370000D03*
D30*
X2034500Y-414500D01*
X2040900Y-414500D01*
X2065357Y-390043D02*
X2110000Y-390043D01*
X2180200Y-460243D01*
X1382700Y-391900D02*
X1360800Y-370000D01*
X1340000Y-370000D01*
X1330000Y-380000D01*
D31*
X1330000Y-380000D03*
X1332032Y-490000D03*
D30*
X1360000Y-490000D01*
X1382700Y-512700D01*
X1382700Y-521900D01*
D31*
X1332032Y-624064D03*
D30*
X1374064Y-624064D01*
X1382700Y-632700D01*
X1382700Y-651900D01*
D31*
X1330000Y-760000D03*
D30*
X1360800Y-760000D01*
X1381712Y-780912D01*
X1382700Y-261900D02*
X1360800Y-240000D01*
D31*
X1342032Y-240000D03*
D30*
X1360800Y-240000D01*
X873100Y-460000D02*
X860000Y-460000D01*
X850000Y-470000D01*
X850000Y-600000D01*
D31*
X850000Y-600000D03*
D30*
X990000Y-820000D02*
X910000Y-900000D01*
X990000Y-820000D02*
X990000Y-720000D01*
X1110000Y-720000D01*
X1130000Y-740000D01*
X1130000Y-790000D01*
X1190000Y-850000D01*
X1250000Y-850000D01*
D31*
X1250000Y-850000D03*
X850000Y-902032D03*
D30*
X852032Y-900000D02*
X910000Y-900000D01*
X852032Y-900000D02*
X850000Y-902032D01*
X1714705Y-713005D02*
X1714705Y-671300D01*
X1714705Y-713005D02*
X1735200Y-733500D01*
X1714705Y-645900D02*
X1831500Y-645900D01*
X1863300Y-677700D01*
X1620000Y-50000D02*
X1439800Y-50000D01*
X1620000Y-50000D02*
X1650000Y-80000D01*
X1650000Y-581195D01*
X1714705Y-645900D01*
X1424700Y-65100D02*
X1439800Y-50000D01*
X2040900Y-669500D02*
X2060000Y-688600D01*
X2060000Y-710000D01*
X2078045Y-728045D01*
X2097100Y-728045D01*
X2182400Y-707500D02*
X2182400Y-652443D01*
X1831500Y-601500D02*
X1800000Y-570000D01*
X1831500Y-601500D02*
X1837900Y-601500D01*
D31*
X1800000Y-570000D03*
X1990000Y-570000D03*
D30*
X2034500Y-614500D01*
X2040900Y-614500D01*
X2144457Y-614500D01*
X2182400Y-652443D01*
X873100Y-637800D02*
X873100Y-754000D01*
X891000Y-771900D01*
X891000Y-751900D02*
X962900Y-680000D01*
X891000Y-751900D02*
X891000Y-771900D01*
X962900Y-680000D02*
X1130000Y-680000D01*
X1170000Y-720000D01*
X1170000Y-770000D01*
X1210000Y-810000D01*
X1240000Y-810000D01*
X1266100Y-783900D01*
X1266100Y-694400D01*
X1964705Y-851300D02*
X1964705Y-905295D01*
X1944700Y-925300D01*
X1944700Y-939498D01*
X2080000Y-852045D02*
X2103300Y-875345D01*
X2080000Y-852045D02*
X2080000Y-850000D01*
X2020000Y-850000D01*
X1995900Y-825900D01*
X1964705Y-825900D01*
X1600000Y-100000D02*
X1485000Y-100000D01*
X1600000Y-100000D02*
X1630000Y-130000D01*
X1630000Y-600000D01*
X1690000Y-660000D01*
X1690000Y-730000D01*
X1730000Y-770000D01*
X1870000Y-770000D01*
D31*
X1870000Y-770000D03*
X1970000Y-770000D03*
D30*
X1980000Y-780000D01*
X1980000Y-810605D01*
X1964705Y-825900D01*
X1485000Y-100000D02*
X1450100Y-65100D01*
X2175800Y-132900D02*
X2200000Y-157100D01*
X2200000Y-320000D01*
X2187100Y-332900D01*
X2178000Y-332900D01*
X2200000Y-354900D01*
X2200000Y-513100D01*
X2180200Y-532900D01*
X2200000Y-552700D01*
X2200000Y-715300D01*
X2182400Y-732900D01*
X2190000Y-760000D02*
X2200000Y-760000D01*
X2190000Y-760000D02*
X2182400Y-752400D01*
X2182400Y-732900D01*
X1867300Y-924899D02*
X1867300Y-934418D01*
X1867300Y-924899D02*
X1857801Y-915400D01*
X1802309Y-915400D01*
X1777709Y-940000D01*
X1357300Y-468100D02*
X1331900Y-468100D01*
X1320000Y-480000D01*
X1320000Y-580000D01*
X1338100Y-598100D01*
X1357300Y-598100D01*
X1357300Y-468100D02*
X1337300Y-468100D01*
X1314900Y-445700D01*
X1338100Y-728100D02*
X1357300Y-728100D01*
X1314900Y-445700D02*
X1314900Y-355100D01*
X1331900Y-598100D02*
X1338100Y-598100D01*
X1331900Y-598100D02*
X1320000Y-610000D01*
X1320000Y-710000D01*
X1336492Y-726492D01*
X1338100Y-728100D01*
X1336492Y-726492D02*
X1317968Y-745016D01*
X1336312Y-857112D02*
X1356312Y-857112D01*
X1336312Y-857112D02*
X1317968Y-838768D01*
X1317968Y-745016D01*
X1355400Y-340000D02*
X1357300Y-338100D01*
X1355400Y-340000D02*
X1330000Y-340000D01*
X1314900Y-355100D01*
X1475500Y-150100D02*
X1500900Y-150100D01*
X1526300Y-150100D01*
X1551700Y-150100D01*
X1710707Y-940000D02*
X1777709Y-940000D01*
X541546Y-135304D02*
X486054Y-135304D01*
X451458Y-169900D02*
X448850Y-169900D01*
X451458Y-169900D02*
X486054Y-135304D01*
X541546Y-135304D02*
X580000Y-173758D01*
X508850Y-259900D02*
X468850Y-299900D01*
X448850Y-299900D01*
X508850Y-259900D02*
X549900Y-259900D01*
X550000Y-260000D01*
X560000Y-260000D01*
X580000Y-240000D01*
X580000Y-173758D01*
X560000Y-260000D02*
X580000Y-280000D01*
X580000Y-380000D01*
X560000Y-400000D01*
X510000Y-400000D01*
X480000Y-430000D01*
X448950Y-430000D01*
X448850Y-429900D01*
X448850Y-559900D02*
X480100Y-559900D01*
X520000Y-520000D01*
X560000Y-520000D01*
X580000Y-500000D01*
X580000Y-420000D01*
X560000Y-400000D01*
X448850Y-559900D02*
X448850Y-649900D01*
X440100Y-649900D01*
X430000Y-660000D01*
X430000Y-760000D01*
X442900Y-772900D01*
X448850Y-772900D01*
X1320000Y-330000D02*
X1330000Y-340000D01*
X1320000Y-330000D02*
X1320000Y-110000D01*
X1330000Y-100000D01*
X1425400Y-100000D01*
X1475500Y-150100D01*
X1370000Y-977500D02*
X1347500Y-977500D01*
X1370000Y-977500D02*
X1570000Y-977500D01*
X1580000Y-967500D02*
X1683207Y-967500D01*
X1710707Y-940000D01*
X1583600Y-940078D02*
X1583600Y-963900D01*
X1580000Y-967500D01*
X1570000Y-977500D01*
X1777709Y-940000D02*
X1780000Y-940000D01*
X1336312Y-857112D02*
X1320000Y-873424D01*
X1481600Y-961300D02*
X1518700Y-961300D01*
X1540000Y-940000D01*
X1583522Y-940000D01*
X1583600Y-940078D01*
X1320000Y-930000D02*
X1320000Y-873424D01*
X1320000Y-930000D02*
X1320000Y-950000D01*
X1347500Y-977500D01*
X1365200Y-972700D02*
X1365200Y-959500D01*
X1365200Y-972700D02*
X1370000Y-977500D01*
X1320000Y-930000D02*
X1260000Y-870000D01*
X1180000Y-870000D01*
X1110000Y-800000D01*
X1110000Y-750000D01*
X1100000Y-740000D01*
X1020000Y-740000D01*
X1010000Y-750000D01*
X1010000Y-830000D01*
X920000Y-920000D01*
X450000Y-870000D02*
X390000Y-810000D01*
X390000Y-740000D01*
D31*
X390000Y-740000D03*
X480000Y-730000D03*
D30*
X480000Y-750000D01*
X457100Y-772900D01*
X448850Y-772900D01*
X1780000Y-940000D02*
X1820000Y-980000D01*
X2200000Y-760000D02*
X2217440Y-777440D01*
X2217440Y-937523D01*
X2215426Y-941608D01*
X2177033Y-980000D01*
X1820000Y-980000D01*
X770000Y-870000D02*
X450000Y-870000D01*
X770000Y-870000D02*
X820000Y-920000D01*
X920000Y-920000D01*
X1189900Y-422600D02*
X1189900Y-282200D01*
X1189900Y-422600D02*
X1127100Y-485400D01*
X1143800Y-220000D02*
X1200000Y-220000D01*
X1240000Y-180000D01*
X1240000Y-150000D01*
X1250000Y-140000D01*
X1296200Y-140000D01*
X1143800Y-220000D02*
X1143800Y-240000D01*
X1110000Y-273800D01*
X1110000Y-493700D01*
X1127100Y-510800D01*
X1215300Y-282200D02*
X1240700Y-282200D01*
X1215300Y-448000D02*
X1127100Y-536200D01*
X1215300Y-448000D02*
X1215300Y-282200D01*
X896800Y-82000D02*
X846800Y-82000D01*
X896800Y-82000D02*
X946800Y-82000D01*
X996800Y-82000D01*
X1043600Y-82000D01*
X1089517Y-82000D01*
X1080000Y-590700D02*
X1127100Y-637800D01*
X1080000Y-590700D02*
X1080000Y-280000D01*
X1110000Y-250000D01*
X1110000Y-102483D01*
X1089517Y-82000D01*
X1190000Y-740000D02*
X1190000Y-755000D01*
X1213600Y-778600D01*
X1215300Y-714700D02*
X1215300Y-694400D01*
X1215300Y-714700D02*
X1190000Y-740000D01*
X1240700Y-726100D02*
X1240700Y-694400D01*
X1240700Y-726100D02*
X1213600Y-753200D01*
X846800Y-281300D02*
X846800Y-199600D01*
X846800Y-281300D02*
X873100Y-307600D01*
X788100Y-132338D02*
X790438Y-130000D01*
X810000Y-130000D01*
X846800Y-166800D01*
X846800Y-199600D01*
X896800Y-199600D02*
X896800Y-309300D01*
X873100Y-333000D01*
X861100Y-333000D02*
X788100Y-260000D01*
X861100Y-333000D02*
X873100Y-333000D01*
X946800Y-284700D02*
X946800Y-199600D01*
X946800Y-284700D02*
X873100Y-358400D01*
X790000Y-390000D02*
X788100Y-390000D01*
X790000Y-390000D02*
X821600Y-358400D01*
X873100Y-358400D01*
X996800Y-263200D02*
X996800Y-199600D01*
X996800Y-263200D02*
X876200Y-383800D01*
X873100Y-383800D01*
X846200Y-383800D01*
X770000Y-460000D01*
X770000Y-501900D01*
X788100Y-520000D01*
X1043600Y-239600D02*
X1043600Y-199600D01*
X1043600Y-239600D02*
X874000Y-409200D01*
X873100Y-409200D01*
X872300Y-410000D01*
X850000Y-410000D01*
X810000Y-450000D01*
X810000Y-630000D01*
X790000Y-650000D01*
X1630000Y-901843D02*
X1667655Y-939498D01*
X1630000Y-901843D02*
X1630000Y-880000D01*
X1610000Y-880000D01*
D31*
X1610000Y-880000D03*
X1290000Y-830000D03*
D30*
X790000Y-650000D02*
X788100Y-650000D01*
X790000Y-650000D02*
X810000Y-670000D01*
X810000Y-720000D01*
D31*
X810000Y-720000D03*
X810000Y-880000D03*
D30*
X970000Y-710000D02*
X980000Y-700000D01*
X1120000Y-700000D01*
X1150000Y-730000D01*
X1150000Y-780000D01*
X1200000Y-830000D01*
X1290000Y-830000D01*
X901213Y-880000D02*
X810000Y-880000D01*
X901213Y-880000D02*
X970000Y-811213D01*
X970000Y-710000D01*
X1089517Y-229600D02*
X1089517Y-199600D01*
X1089517Y-229600D02*
X884517Y-434600D01*
X873100Y-434600D01*
X855400Y-434600D01*
X830000Y-460000D01*
X830000Y-740000D01*
X790000Y-780000D01*
X788100Y-780000D01*
X448850Y-144500D02*
X486350Y-107000D01*
X548000Y-107000D01*
X548000Y-235000D02*
X495000Y-235000D01*
X455500Y-274500D01*
X448850Y-274500D01*
X448850Y-404500D02*
X475500Y-404500D01*
X513000Y-367000D01*
X548000Y-367000D01*
X475500Y-534500D02*
X448850Y-534500D01*
X475500Y-534500D02*
X513000Y-497000D01*
X548000Y-497000D01*
X574100Y-600000D02*
X548000Y-626100D01*
X574100Y-600000D02*
X687300Y-600000D01*
X711900Y-624600D01*
X575000Y-730000D02*
X548000Y-757000D01*
X575000Y-730000D02*
X687300Y-730000D01*
X711900Y-754600D01*
X1780000Y-83250D02*
X1810000Y-113250D01*
X1810000Y-130000D01*
X1815990Y-135990D01*
X1890065Y-135990D01*
X1780000Y-283250D02*
X1829126Y-332376D01*
X1890700Y-332376D01*
X1890065Y-331740D02*
X1890065Y-135990D01*
X1890065Y-331740D02*
X1890700Y-332376D01*
X1780000Y-472170D02*
X1833790Y-525960D01*
X1887100Y-525960D01*
X1890700Y-522360D02*
X1890700Y-332376D01*
X1890700Y-522360D02*
X1887100Y-525960D01*
X1780000Y-676250D02*
X1837250Y-733500D01*
X1887600Y-733500D01*
X1887600Y-526460D02*
X1887100Y-525960D01*
X1887600Y-526460D02*
X1887600Y-733500D01*
X2097100Y-939498D02*
X2147998Y-939498D01*
X2160698Y-952198D02*
X2181400Y-952198D01*
X2160698Y-952198D02*
X2147998Y-939498D01*
X2097100Y-939498D02*
X2049498Y-939498D01*
X2030000Y-920000D01*
X2030000Y-883250D01*
X1903500Y-749400D02*
X1887600Y-733500D01*
X1903500Y-749400D02*
X1903500Y-801900D01*
X1990000Y-923250D02*
X2030000Y-883250D01*
X1990000Y-923250D02*
X1990000Y-950000D01*
X1980000Y-960000D01*
X1930000Y-960000D01*
X1920000Y-950000D01*
X1920000Y-850000D01*
X1900000Y-830000D01*
X1900000Y-805400D01*
X1903500Y-801900D01*
X1730000Y-796750D02*
X1730000Y-820000D01*
X1740000Y-830000D01*
X1790000Y-830000D01*
X1801900Y-818100D01*
X1801900Y-801900D01*
X1903500Y-801900D01*
X1730000Y-796750D02*
X1700550Y-826200D01*
X1650000Y-826200D01*
X1576200Y-724878D02*
X1574878Y-724878D01*
X1576200Y-724878D02*
X1551078Y-750000D01*
X1550000Y-750000D01*
X1550000Y-823800D01*
X1576200Y-850000D01*
X1557500Y-358700D02*
X1576200Y-340000D01*
X1557500Y-358700D02*
X1557500Y-451300D01*
X1576200Y-470000D01*
X1557500Y-488700D01*
X1557500Y-580372D01*
X1576200Y-599072D01*
X1557500Y-617772D01*
X1557500Y-707500D01*
X1574878Y-724878D01*
X1576200Y-340000D02*
X1557500Y-321300D01*
X1566600Y-80000D02*
X1551700Y-65100D01*
X1590000Y-80000D02*
X1600000Y-70000D01*
X1590000Y-80000D02*
X1566600Y-80000D01*
D31*
X1600000Y-70000D03*
X1560000Y-220000D03*
D30*
X1557500Y-222500D01*
X1557500Y-321300D01*
X1650000Y-740000D02*
X1650000Y-826200D01*
X1650000Y-740000D02*
X1670000Y-720000D01*
X1670000Y-660000D01*
X1660000Y-650000D01*
X1620000Y-650000D01*
X1610000Y-660000D01*
X1610000Y-820000D01*
X1580000Y-850000D01*
X1576200Y-850000D01*
X523800Y-164004D02*
X495996Y-164004D01*
X513800Y-290000D02*
X523800Y-290000D01*
X513800Y-290000D02*
X473800Y-330000D01*
X447737Y-330000D02*
X410000Y-292263D01*
X447737Y-330000D02*
X470000Y-330000D01*
X473800Y-330000D01*
X410000Y-292263D02*
X410000Y-260000D01*
X470000Y-330000D02*
X470000Y-357950D01*
X448850Y-379100D01*
X448850Y-211150D02*
X495996Y-164004D01*
X448850Y-211150D02*
X448850Y-249100D01*
X420900Y-249100D02*
X410000Y-260000D01*
X420900Y-249100D02*
X448850Y-249100D01*
X448850Y-379100D02*
X447950Y-380000D01*
X420000Y-380000D01*
X410000Y-390000D01*
X410000Y-430000D01*
X440000Y-460000D01*
X470000Y-460000D01*
X493800Y-460000D01*
X523800Y-430000D01*
X470000Y-487950D02*
X448850Y-509100D01*
X470000Y-487950D02*
X470000Y-460000D01*
X665600Y-626100D02*
X601700Y-690000D01*
X570000Y-690000D01*
X510000Y-750000D01*
X510000Y-770000D01*
X540000Y-800000D01*
X570000Y-800000D01*
X622600Y-800000D01*
X665600Y-757000D01*
X447950Y-510000D02*
X448850Y-509100D01*
X447950Y-510000D02*
X430000Y-510000D01*
X420000Y-520000D01*
X420000Y-620000D01*
X410000Y-630000D01*
X410000Y-800000D01*
X460000Y-850000D01*
X550000Y-850000D01*
X570000Y-830000D01*
X570000Y-800000D01*
X1576200Y-850000D02*
X1583600Y-857400D01*
X1583600Y-914678D01*
X1575222Y-906300D02*
X1481600Y-906300D01*
X1575222Y-906300D02*
X1583600Y-914678D01*
X1367000Y-906300D02*
X1365200Y-904500D01*
X1367000Y-906300D02*
X1481600Y-906300D01*
X448850Y-211150D02*
X441150Y-211150D01*
X410000Y-180000D01*
X410000Y-110000D01*
X440000Y-80000D01*
X590000Y-80000D01*
X630000Y-40000D01*
X1340000Y-40000D01*
X1410000Y30000D01*
X1700000Y30000D01*
X1750000Y-20000D01*
X1830000Y-20000D01*
X1890065Y-80065D01*
X1890065Y-135990D01*
X523800Y-560000D02*
X510000Y-573800D01*
X510000Y-630000D01*
X570000Y-690000D01*
X2180000Y-824045D02*
X2204900Y-799145D01*
X2180000Y-824045D02*
X2180000Y-890000D01*
X2200000Y-910000D01*
X2200000Y-943598D01*
X2191400Y-952198D01*
X2181400Y-952198D01*
X711900Y-106938D02*
X684962Y-80000D01*
X622450Y-91553D02*
X622450Y-110254D01*
X676200Y-164004D01*
X684962Y-80000D02*
X634003Y-80000D01*
X622450Y-91553D01*
X665600Y-107000D02*
X690938Y-132338D01*
X711900Y-132338D01*
X689150Y-211850D02*
X711900Y-234600D01*
X689150Y-211850D02*
X638150Y-211850D01*
X620000Y-230000D01*
X620000Y-270000D01*
X640000Y-290000D01*
X676200Y-290000D01*
X690600Y-260000D02*
X665600Y-235000D01*
X690600Y-260000D02*
X711900Y-260000D01*
X687300Y-340000D02*
X711900Y-364600D01*
X687300Y-340000D02*
X650000Y-340000D01*
X630000Y-360000D01*
X630000Y-410000D01*
X650000Y-430000D01*
X676200Y-430000D01*
X688600Y-390000D02*
X665600Y-367000D01*
X688600Y-390000D02*
X711900Y-390000D01*
X687300Y-470000D02*
X711900Y-494600D01*
X687300Y-470000D02*
X650000Y-470000D01*
X630000Y-490000D01*
X630000Y-540000D01*
X650000Y-560000D01*
X676200Y-560000D01*
X688600Y-520000D02*
X665600Y-497000D01*
X688600Y-520000D02*
X711900Y-520000D01*
X463550Y-690000D02*
X448850Y-675300D01*
X463550Y-690000D02*
X523800Y-690000D01*
X448850Y-798300D02*
X470550Y-820000D01*
X523800Y-820000D01*
X676200Y-690000D02*
X680000Y-686200D01*
X680000Y-670000D01*
X700000Y-650000D01*
X711900Y-650000D01*
X680000Y-816200D02*
X676200Y-820000D01*
X680000Y-816200D02*
X680000Y-800000D01*
X700000Y-780000D01*
X711900Y-780000D01*
X1266100Y-250100D02*
X1296200Y-220000D01*
X1266100Y-250100D02*
X1266100Y-282200D01*
X929100Y-784600D02*
X891000Y-822700D01*
X929100Y-784600D02*
X950000Y-784600D01*
X950000Y-810000D02*
X922849Y-810000D01*
X891000Y-841849D01*
X891000Y-848100D01*
X2030000Y-796750D02*
X2060000Y-826750D01*
X2060000Y-830000D01*
X2090000Y-830000D01*
X2103300Y-816700D01*
X2103300Y-799145D01*
X1820250Y-630000D02*
X1780000Y-589750D01*
X1820250Y-630000D02*
X1840000Y-630000D01*
X1863300Y-606700D01*
X1863300Y-601500D01*
X1824330Y-430000D02*
X1780000Y-385670D01*
X1824330Y-430000D02*
X1850000Y-430000D01*
X1863300Y-416700D01*
X1863300Y-401500D01*
X1850000Y-230000D02*
X1863300Y-216700D01*
X1863300Y-203900D01*
X1813250Y-230000D02*
X1780000Y-196750D01*
X1813250Y-230000D02*
X1850000Y-230000D01*
X1863300Y-3900D02*
X1860000Y-600D01*
X1860000Y10000D01*
X1850000Y20000D01*
X1796750Y20000D01*
X1780000Y3250D01*
X1944200Y-135990D02*
X1964900Y-156690D01*
X1964900Y-203900D01*
X1943700Y-328045D02*
X1943700Y-380300D01*
X1964900Y-401500D01*
X1964900Y-464900D01*
X1965000Y-465000D01*
X1943200Y-528045D02*
X1943200Y-579800D01*
X1964900Y-601500D01*
X1964900Y-644400D01*
X1964900Y-115290D02*
X1964900Y-80100D01*
X1964900Y-115290D02*
X1944200Y-135990D01*
X1965000Y-465000D02*
X1964840Y-465160D01*
X1959706Y-465160D01*
X1943200Y-481666D01*
X1943200Y-528045D01*
X1964900Y-644400D02*
X1949300Y-660000D01*
X1940000Y-660000D01*
X1940000Y-723345D01*
X1944700Y-728045D01*
X1943700Y-328045D02*
X1943700Y-261200D01*
X1944700Y-728045D02*
X1944700Y-895300D01*
X1940000Y-900000D01*
D31*
X1940000Y-900000D03*
X1780000Y-910000D03*
D30*
X1770000Y-900000D01*
X1760000Y-900000D01*
X1760000Y-880000D01*
X1761900Y-878100D01*
X1776500Y-878100D01*
X1964900Y-240000D02*
X1964900Y-203900D01*
X1964900Y-240000D02*
X1943700Y-261200D01*
X2077900Y-875345D02*
X2092555Y-890000D01*
X2140000Y-890000D01*
X2176798Y-926798D01*
X2181400Y-926798D01*
X1375400Y-300000D02*
X1357300Y-281900D01*
X1357300Y-261900D01*
X1375400Y-300000D02*
X1413800Y-300000D01*
X1423800Y-290000D02*
X1423800Y-270000D01*
X1423800Y-290000D02*
X1413800Y-300000D01*
X1421900Y-338100D02*
X1382700Y-338100D01*
X1421900Y-338100D02*
X1423800Y-340000D01*
X1390000Y-230000D02*
X1350000Y-190000D01*
X1390000Y-230000D02*
X1420000Y-230000D01*
X1460000Y-270000D01*
X1460000Y-303800D01*
X1423800Y-340000D01*
X1350000Y-151600D02*
X1348500Y-150100D01*
X1350000Y-151600D02*
X1350000Y-190000D01*
X1423800Y-400000D02*
X1423800Y-420000D01*
X1413800Y-430000D01*
X1378835Y-430000D01*
X1357300Y-408465D01*
X1357300Y-391900D01*
X1382700Y-468100D02*
X1421900Y-468100D01*
X1423800Y-470000D01*
X1420000Y-210000D02*
X1400000Y-210000D01*
X1420000Y-210000D02*
X1480000Y-270000D01*
X1480000Y-413800D01*
X1423800Y-470000D01*
X1373900Y-183900D02*
X1373900Y-150100D01*
X1373900Y-183900D02*
X1400000Y-210000D01*
X1357300Y-521900D02*
X1360000Y-524600D01*
X1360000Y-540000D01*
X1380000Y-560000D01*
X1420000Y-560000D01*
X1423800Y-556200D01*
X1423800Y-527900D01*
X1382700Y-598100D02*
X1383672Y-599072D01*
X1423800Y-599072D01*
X1410000Y-190000D02*
X1399300Y-179300D01*
X1410000Y-190000D02*
X1420000Y-190000D01*
X1500000Y-270000D01*
X1500000Y-522872D01*
X1423800Y-599072D01*
X1399300Y-179300D02*
X1399300Y-150100D01*
X1357300Y-651900D02*
X1360000Y-654600D01*
X1360000Y-670000D01*
X1380000Y-690000D01*
X1420000Y-690000D01*
X1423800Y-686200D01*
X1423800Y-657900D01*
X1420578Y-728100D02*
X1382700Y-728100D01*
X1420578Y-728100D02*
X1423800Y-724878D01*
X1520000Y-270000D02*
X1424700Y-174700D01*
X1520000Y-270000D02*
X1520000Y-628678D01*
X1423800Y-724878D01*
X1424700Y-174700D02*
X1424700Y-150100D01*
X1356312Y-780912D02*
X1356312Y-806312D01*
X1370000Y-820000D01*
X1410000Y-820000D01*
X1423800Y-806200D01*
X1423800Y-790000D01*
X1416688Y-857112D02*
X1381712Y-857112D01*
X1416688Y-857112D02*
X1423800Y-850000D01*
X1540000Y-733800D02*
X1540000Y-270000D01*
X1540000Y-733800D02*
X1423800Y-850000D01*
X1450100Y-179900D02*
X1450100Y-150100D01*
X1450100Y-179900D02*
X1450000Y-180000D01*
X1540000Y-270000D01*
X1650000Y-673800D02*
X1630000Y-693800D01*
X1630000Y-850000D01*
X1660000Y-880000D01*
X1667300Y-880000D01*
X1730000Y-883250D02*
X1730000Y-870000D01*
X1750000Y-850000D01*
X1773800Y-850000D01*
X1801900Y-878100D01*
X1868100Y-878100D01*
X1892700Y-902700D01*
X1892700Y-934418D01*
X1726750Y-880000D02*
X1692700Y-880000D01*
X1726750Y-880000D02*
X1730000Y-883250D01*
X1820055Y-939498D02*
X1834555Y-939498D01*
X1876446Y-957022D02*
X1880000Y-953468D01*
X1876446Y-957022D02*
X1852079Y-957022D01*
X1834555Y-939498D01*
M02*
