G04 EAGLE Gerber RS-274X export*
G75*
%MOMM*%
%FSLAX34Y34*%
%LPD*%
%INTop Copper*%
%IPPOS*%
%AMOC8*
5,1,8,0,0,1.08239X$1,22.5*%
G01*
G04 Define Apertures*
%ADD10C,1.400000*%
%ADD11C,1.581000*%
%ADD12C,1.800000*%
%ADD13C,1.430000*%
%ADD14P,2.74927X8X202.5*%
%ADD15P,2.74927X8X22.5*%
%ADD16R,1.108000X1.108000*%
%ADD17C,1.108000*%
%ADD18C,1.308000*%
%ADD19C,1.530000*%
%ADD20R,1.530000X1.530000*%
%ADD21R,1.178000X1.178000*%
%ADD22C,1.178000*%
%ADD23R,1.308000X1.308000*%
%ADD24R,1.508000X1.508000*%
%ADD25C,1.508000*%
%ADD26R,1.348000X1.348000*%
%ADD27C,1.348000*%
%ADD28P,2.74927X8X292.5*%
%ADD29P,1.42962X8X202.5*%
%ADD30C,1.206400*%
%ADD31C,0.700000*%
D10*
X2040900Y-669500D03*
X2040900Y-614500D03*
X1481600Y-961300D03*
X1481600Y-906300D03*
X1365200Y-904500D03*
X1365200Y-959500D03*
X2040900Y-69500D03*
X2040900Y-14500D03*
X2040900Y-269500D03*
X2040900Y-214500D03*
X2040900Y-469500D03*
X2040900Y-414500D03*
D11*
X1714705Y-71300D03*
X1714705Y-45900D03*
X1714705Y-271300D03*
X1714705Y-245900D03*
X1714705Y-471300D03*
X1714705Y-445900D03*
X1714705Y-671300D03*
X1714705Y-645900D03*
X1964705Y-851300D03*
X1964705Y-825900D03*
D12*
X448850Y-169900D03*
X448850Y-119100D03*
X448850Y-144500D03*
X2180200Y-532900D03*
X2180200Y-507500D03*
X2182400Y-732900D03*
X2182400Y-707500D03*
X2181400Y-952198D03*
X2181400Y-926798D03*
X1213600Y-778600D03*
X1213600Y-753200D03*
X448850Y-299900D03*
X448850Y-249100D03*
X448850Y-274500D03*
X448850Y-429900D03*
X448850Y-379100D03*
X448850Y-404500D03*
X448850Y-559900D03*
X448850Y-509100D03*
X448850Y-534500D03*
X448850Y-649900D03*
X448850Y-675300D03*
X448850Y-772900D03*
X448850Y-798300D03*
X1583600Y-914678D03*
X1583600Y-940078D03*
X2175800Y-132900D03*
X2175800Y-107500D03*
X2178000Y-332900D03*
X2178000Y-307500D03*
D13*
X548000Y-107000D03*
X665600Y-107000D03*
X996800Y-199600D03*
X996800Y-82000D03*
X1043600Y-199600D03*
X1043600Y-82000D03*
X1089517Y-199600D03*
X1089517Y-82000D03*
D14*
X1890065Y-135990D03*
X1737665Y-135990D03*
X1890700Y-332376D03*
X1738300Y-332376D03*
X1887100Y-525960D03*
X1734700Y-525960D03*
D15*
X1944200Y-135990D03*
X2096600Y-135990D03*
X1943700Y-328045D03*
X2096100Y-328045D03*
X1943200Y-528045D03*
X2095600Y-528045D03*
D14*
X1887600Y-733500D03*
X1735200Y-733500D03*
D13*
X548000Y-235000D03*
X665600Y-235000D03*
D15*
X1944700Y-728045D03*
X2097100Y-728045D03*
D14*
X2097100Y-939498D03*
X1944700Y-939498D03*
D13*
X548000Y-367000D03*
X665600Y-367000D03*
X548000Y-497000D03*
X665600Y-497000D03*
X665600Y-626100D03*
X548000Y-626100D03*
X665600Y-757000D03*
X548000Y-757000D03*
X846800Y-199600D03*
X846800Y-82000D03*
X896800Y-199600D03*
X896800Y-82000D03*
X946800Y-199600D03*
X946800Y-82000D03*
D16*
X873100Y-282200D03*
D17*
X873100Y-307600D03*
X873100Y-333000D03*
X873100Y-358400D03*
X873100Y-383800D03*
X873100Y-409200D03*
X873100Y-434600D03*
X873100Y-460000D03*
X873100Y-485400D03*
X873100Y-510800D03*
X873100Y-536200D03*
X873100Y-561600D03*
X873100Y-587000D03*
X873100Y-612400D03*
X873100Y-637800D03*
X1127100Y-637800D03*
X1127100Y-612400D03*
X1127100Y-587000D03*
X1127100Y-561600D03*
X1127100Y-536200D03*
X1127100Y-510800D03*
X1127100Y-485400D03*
X1127100Y-460000D03*
X1127100Y-434600D03*
X1127100Y-409200D03*
X1127100Y-383800D03*
X1127100Y-358400D03*
X1127100Y-333000D03*
X1127100Y-307600D03*
X1127100Y-282200D03*
D18*
X1964900Y-3900D03*
X1863300Y-3900D03*
X1837900Y-3900D03*
X1837900Y-80100D03*
X1863300Y-80100D03*
X1964900Y-80100D03*
X1964900Y-203900D03*
X1863300Y-203900D03*
X1837900Y-203900D03*
X1837900Y-280100D03*
X1863300Y-280100D03*
X1964900Y-280100D03*
X1964900Y-401500D03*
X1863300Y-401500D03*
X1837900Y-401500D03*
X1837900Y-477700D03*
X1863300Y-477700D03*
X1964900Y-477700D03*
X1964900Y-601500D03*
X1863300Y-601500D03*
X1837900Y-601500D03*
X1837900Y-677700D03*
X1863300Y-677700D03*
X1964900Y-677700D03*
X2204900Y-799145D03*
X2103300Y-799145D03*
X2077900Y-799145D03*
X2077900Y-875345D03*
X2103300Y-875345D03*
X2204900Y-875345D03*
D19*
X1215300Y-694400D03*
X1240700Y-694400D03*
X1266100Y-694400D03*
D20*
X1189900Y-694400D03*
D19*
X1215300Y-282200D03*
X1240700Y-282200D03*
X1266100Y-282200D03*
X1189900Y-282200D03*
D21*
X1348500Y-150100D03*
D22*
X1373900Y-150100D03*
X1399300Y-150100D03*
X1424700Y-150100D03*
X1450100Y-150100D03*
X1475500Y-150100D03*
X1500900Y-150100D03*
X1526300Y-150100D03*
X1551700Y-150100D03*
X1551700Y-65100D03*
X1526300Y-65100D03*
X1500900Y-65100D03*
X1475500Y-65100D03*
X1450100Y-65100D03*
X1424700Y-65100D03*
X1399300Y-65100D03*
X1373900Y-65100D03*
X1348500Y-65100D03*
D18*
X711900Y-132338D03*
X788100Y-132338D03*
D23*
X711900Y-106938D03*
D18*
X788100Y-106938D03*
X711900Y-157738D03*
X788100Y-157738D03*
X711900Y-260000D03*
X788100Y-260000D03*
D23*
X711900Y-234600D03*
D18*
X788100Y-234600D03*
X711900Y-285400D03*
X788100Y-285400D03*
X711900Y-390000D03*
X788100Y-390000D03*
D23*
X711900Y-364600D03*
D18*
X788100Y-364600D03*
X711900Y-415400D03*
X788100Y-415400D03*
X711900Y-520000D03*
X788100Y-520000D03*
D23*
X711900Y-494600D03*
D18*
X788100Y-494600D03*
X711900Y-545400D03*
X788100Y-545400D03*
X711900Y-650000D03*
X788100Y-650000D03*
D23*
X711900Y-624600D03*
D18*
X788100Y-624600D03*
X711900Y-675400D03*
X788100Y-675400D03*
X711900Y-780000D03*
X788100Y-780000D03*
D23*
X711900Y-754600D03*
D18*
X788100Y-754600D03*
X711900Y-805400D03*
X788100Y-805400D03*
D15*
X523800Y-164004D03*
X676200Y-164004D03*
X523800Y-290000D03*
X676200Y-290000D03*
X523800Y-430000D03*
X676200Y-430000D03*
X523800Y-560000D03*
X676200Y-560000D03*
X523800Y-690000D03*
X676200Y-690000D03*
X523800Y-820000D03*
X676200Y-820000D03*
X1143800Y-220000D03*
X1296200Y-220000D03*
X1143800Y-140000D03*
X1296200Y-140000D03*
D24*
X891000Y-848100D03*
D25*
X891000Y-822700D03*
X891000Y-771900D03*
X891000Y-797300D03*
D12*
X950000Y-810000D03*
X950000Y-784600D03*
D24*
X1780000Y-83250D03*
D25*
X1780000Y3250D03*
D24*
X1780000Y-283250D03*
D25*
X1780000Y-196750D03*
D24*
X1780000Y-472170D03*
D25*
X1780000Y-385670D03*
D24*
X1780000Y-676250D03*
D25*
X1780000Y-589750D03*
D24*
X2030000Y-883250D03*
D25*
X2030000Y-796750D03*
D26*
X1382700Y-261900D03*
D27*
X1357300Y-261900D03*
X1357300Y-338100D03*
X1382700Y-338100D03*
D15*
X1423800Y-270000D03*
X1576200Y-270000D03*
D14*
X1576200Y-340000D03*
X1423800Y-340000D03*
D26*
X1382700Y-391900D03*
D27*
X1357300Y-391900D03*
X1357300Y-468100D03*
X1382700Y-468100D03*
D15*
X1423800Y-400000D03*
X1576200Y-400000D03*
D14*
X1576200Y-470000D03*
X1423800Y-470000D03*
D26*
X1382700Y-521900D03*
D27*
X1357300Y-521900D03*
X1357300Y-598100D03*
X1382700Y-598100D03*
D15*
X1423800Y-527900D03*
X1576200Y-527900D03*
D14*
X1576200Y-599072D03*
X1423800Y-599072D03*
D26*
X1382700Y-651900D03*
D27*
X1357300Y-651900D03*
X1357300Y-728100D03*
X1382700Y-728100D03*
D15*
X1423800Y-657900D03*
X1576200Y-657900D03*
D14*
X1576200Y-724878D03*
X1423800Y-724878D03*
D26*
X1381712Y-780912D03*
D27*
X1356312Y-780912D03*
X1356312Y-857112D03*
X1381712Y-857112D03*
D15*
X1423800Y-790000D03*
X1576200Y-790000D03*
D14*
X1576200Y-850000D03*
X1423800Y-850000D03*
D18*
X1903500Y-801900D03*
X1801900Y-801900D03*
X1776500Y-801900D03*
X1776500Y-878100D03*
X1801900Y-878100D03*
X1903500Y-878100D03*
D24*
X1730000Y-796750D03*
D25*
X1730000Y-883250D03*
D28*
X1650000Y-673800D03*
X1650000Y-826200D03*
D11*
X1667300Y-880000D03*
X1692700Y-880000D03*
D15*
X1667655Y-939498D03*
X1820055Y-939498D03*
D29*
X1867300Y-934418D03*
X1880000Y-953468D03*
X1892700Y-934418D03*
D30*
X1580000Y-180000D03*
D31*
X1570000Y-170000D01*
X1320000Y-170000D01*
X1320000Y-110000D02*
X1300000Y-90000D01*
X1320000Y-110000D02*
X1320000Y-170000D01*
D30*
X1300000Y-90000D03*
X1980000Y-170000D03*
D31*
X1800000Y-170000D01*
D30*
X1800000Y-170000D03*
X1810000Y-370000D03*
D31*
X1990000Y-370000D01*
D30*
X1990000Y-370000D03*
X1330000Y-380000D03*
X1332032Y-490000D03*
D31*
X1330000Y-487968D02*
X1330000Y-380000D01*
X1330000Y-487968D02*
X1332032Y-490000D01*
X1332032Y-624064D01*
D30*
X1332032Y-624064D03*
D31*
X1332032Y-757968D01*
X1330000Y-760000D01*
D30*
X1330000Y-760000D03*
X1342032Y-240000D03*
D31*
X1330000Y-252032D01*
X1330000Y-380000D01*
D30*
X850000Y-600000D03*
X1250000Y-850000D03*
D31*
X1332032Y-777968D02*
X1332032Y-757968D01*
X1332032Y-777968D02*
X1312032Y-797968D01*
X1285016Y-797968D01*
X1250000Y-832984D01*
X1250000Y-850000D01*
D30*
X850000Y-902032D03*
D31*
X850000Y-600000D01*
D30*
X1800000Y-570000D03*
D31*
X1990000Y-570000D01*
D30*
X1990000Y-570000D03*
X1870000Y-770000D03*
D31*
X1970000Y-770000D01*
D30*
X1970000Y-770000D03*
X390000Y-740000D03*
D31*
X420000Y-710000D01*
X460000Y-710000D01*
X480000Y-730000D01*
D30*
X480000Y-730000D03*
X1610000Y-880000D03*
X1290000Y-830000D03*
X810000Y-720000D03*
D31*
X810000Y-880000D01*
D30*
X810000Y-880000D03*
D31*
X1594900Y-864900D02*
X1610000Y-880000D01*
X1594900Y-864900D02*
X1594900Y-842254D01*
X1582646Y-830000D01*
X1290000Y-830000D01*
D30*
X1600000Y-70000D03*
X1560000Y-220000D03*
D31*
X1600000Y-200000D02*
X1600000Y-70000D01*
X1600000Y-200000D02*
X1580000Y-220000D01*
X1560000Y-220000D01*
D30*
X1940000Y-900000D03*
D31*
X1930000Y-910000D01*
X1780000Y-910000D01*
D30*
X1780000Y-910000D03*
M02*
