G04 EAGLE Gerber RS-274X export*
G75*
%MOMM*%
%FSLAX34Y34*%
%LPD*%
%IN*%
%IPPOS*%
%AMOC8*
5,1,8,0,0,1.08239X$1,22.5*%
G01*
G04 Define Apertures*
%ADD10C,0.254000*%
D10*
X360000Y-790000D02*
X359661Y-802240D01*
X360390Y-814463D01*
X362182Y-826575D01*
X365023Y-838486D01*
X368891Y-850103D01*
X373756Y-861340D01*
X379583Y-872109D01*
X386326Y-882330D01*
X393934Y-891924D01*
X402349Y-900818D01*
X411508Y-908946D01*
X421340Y-916244D01*
X431770Y-922657D01*
X442720Y-928137D01*
X454106Y-932641D01*
X465841Y-936137D01*
X477836Y-938596D01*
X490000Y-940000D01*
X1230000Y-940000D01*
X1234396Y-939319D01*
X1238834Y-939023D01*
X1243282Y-939116D01*
X1247704Y-939595D01*
X1252068Y-940458D01*
X1256340Y-941699D01*
X1260487Y-943307D01*
X1264479Y-945270D01*
X1268284Y-947574D01*
X1271874Y-950200D01*
X1275222Y-953130D01*
X1278301Y-956340D01*
X1281089Y-959806D01*
X1283564Y-963502D01*
X1285708Y-967400D01*
X1287504Y-971470D01*
X1288938Y-975680D01*
X1290000Y-980000D01*
X1290114Y-982615D01*
X1290456Y-985209D01*
X1291022Y-987765D01*
X1291809Y-990261D01*
X1292811Y-992679D01*
X1294019Y-995000D01*
X1295425Y-997207D01*
X1297019Y-999284D01*
X1298787Y-1001213D01*
X1300716Y-1002981D01*
X1302793Y-1004575D01*
X1305000Y-1005981D01*
X1307321Y-1007189D01*
X1309739Y-1008191D01*
X1312235Y-1008978D01*
X1314791Y-1009544D01*
X1317385Y-1009886D01*
X1320000Y-1010000D01*
X2190000Y-1010000D01*
X2196101Y-1009734D01*
X2202155Y-1008937D01*
X2208117Y-1007615D01*
X2213941Y-1005778D01*
X2219583Y-1003442D01*
X2225000Y-1000622D01*
X2230150Y-997341D01*
X2234995Y-993623D01*
X2239497Y-989497D01*
X2243623Y-984995D01*
X2247341Y-980150D01*
X2250622Y-975000D01*
X2253442Y-969583D01*
X2255778Y-963941D01*
X2257615Y-958117D01*
X2258937Y-952155D01*
X2259734Y-946101D01*
X2260000Y-940000D01*
X2260000Y-10000D01*
X2259734Y-3899D01*
X2258937Y2155D01*
X2257615Y8117D01*
X2255779Y13941D01*
X2253442Y19583D01*
X2250622Y25000D01*
X2247341Y30150D01*
X2243623Y34995D01*
X2239498Y39497D01*
X2234995Y43623D01*
X2230150Y47341D01*
X2225000Y50622D01*
X2219583Y53442D01*
X2213941Y55779D01*
X2208117Y57615D01*
X2202155Y58937D01*
X2196101Y59734D01*
X2190000Y60000D01*
X1330000Y60000D01*
X1326514Y59848D01*
X1323054Y59392D01*
X1319647Y58637D01*
X1316319Y57588D01*
X1313095Y56252D01*
X1310000Y54641D01*
X1307057Y52766D01*
X1304289Y50642D01*
X1301716Y48284D01*
X1299358Y45712D01*
X1297234Y42943D01*
X1295359Y40000D01*
X1293748Y36905D01*
X1292412Y33681D01*
X1291363Y30353D01*
X1290608Y26946D01*
X1290152Y23486D01*
X1290000Y20000D01*
X1288976Y16552D01*
X1287656Y13206D01*
X1286049Y9988D01*
X1284168Y6922D01*
X1282026Y4032D01*
X1279641Y1340D01*
X1277030Y-1135D01*
X1274214Y-3372D01*
X1271213Y-5355D01*
X1268051Y-7070D01*
X1264752Y-8502D01*
X1261340Y-9641D01*
X1257842Y-10479D01*
X1254284Y-11008D01*
X1250694Y-11225D01*
X1247098Y-11129D01*
X1243524Y-10719D01*
X1240000Y-10000D01*
X490000Y-10000D01*
X477836Y-11404D01*
X465841Y-13863D01*
X454106Y-17359D01*
X442720Y-21863D01*
X431770Y-27343D01*
X421340Y-33756D01*
X411508Y-41054D01*
X402349Y-49182D01*
X393934Y-58076D01*
X386326Y-67670D01*
X379583Y-77891D01*
X373756Y-88660D01*
X368891Y-99897D01*
X365023Y-111514D01*
X362182Y-123425D01*
X360390Y-135537D01*
X359661Y-147760D01*
X360000Y-160000D01*
X360000Y-790000D01*
M02*
