M48
;GenerationSoftware,Autodesk,EAGLE,9.7.0*%
;CreationDate,2026-06-02T21:10:52Z*%
FMAT,2
ICI,OFF
METRIC,TZ,000.000
T11C0.600
T10C0.670
T9C0.800
T8C0.813
T7C0.830
T6C0.840
T5C0.981
T4C1.000
T3C1.020
T2C1.118
T1C1.200
%
G90
M71
T1
X44885Y-27450
X44885Y-42990
X44885Y-37910
X44885Y-40450
X44885Y-55990
X44885Y-50910
X44885Y-53450
X44885Y-64990
X44885Y-67530
X44885Y-77290
X95000Y-81000
X95000Y-78460
X217800Y-30750
X217800Y-33290
X217580Y-10750
X217580Y-13290
X158360Y-94008
X158360Y-91468
X44885Y-79830
X44885Y-16990
X44885Y-11910
X44885Y-14450
X218020Y-53290
X218020Y-50750
X218240Y-73290
X218240Y-70750
X218140Y-95220
X218140Y-92680
X121360Y-77860
X121360Y-75320
X44885Y-29990
X44885Y-24910
T2
X194370Y-32805
X209610Y-32805
X165000Y-82620
X165000Y-67380
X194320Y-52805
X209560Y-52805
X142380Y-85000
X157620Y-85000
X157620Y-79000
X142380Y-79000
X188760Y-73350
X173520Y-73350
X67620Y-56000
X52380Y-56000
X142380Y-72488
X157620Y-72488
X157620Y-65790
X142380Y-65790
X194470Y-72805
X209710Y-72805
X209710Y-93950
X142380Y-59907
X157620Y-59907
X157620Y-52790
X142380Y-52790
X194470Y-93950
X67620Y-43000
X52380Y-43000
X67620Y-29000
X157620Y-47000
X157620Y-40000
X142380Y-40000
X52380Y-29000
X67620Y-16400
X52380Y-16400
X129620Y-14000
X142380Y-34000
X157620Y-34000
X157620Y-27000
X166765Y-93950
X142380Y-47000
X182005Y-93950
X114380Y-14000
X129620Y-22000
X142380Y-27000
X114380Y-22000
X67620Y-82000
X52380Y-82000
X67620Y-69000
X52380Y-69000
X189006Y-13599
X173766Y-13599
X189070Y-33238
X173830Y-33238
X188710Y-52596
X173470Y-52596
X194420Y-13599
X209660Y-13599
T3
X124070Y-28220
X121530Y-28220
X121530Y-69440
X124070Y-69440
X126610Y-69440
X118990Y-28220
X126610Y-28220
X118990Y-69440
T4
X173000Y-88325
X173000Y-79675
X89100Y-82270
X89100Y-77190
X178000Y-8325
X89100Y-79730
X178000Y325
X178000Y-28325
X178000Y-19675
X178000Y-47217
X178000Y-38567
X178000Y-67625
X178000Y-58975
X203000Y-79675
X89100Y-84810
X203000Y-88325
T5
X171471Y-7130
X196470Y-82590
X171471Y-64590
X171471Y-67130
X196470Y-85130
X171471Y-24590
X171471Y-27130
X171471Y-4590
X171471Y-44590
X169270Y-88000
X171471Y-47130
X166730Y-88000
T6
X138270Y-46810
X138270Y-72810
X138270Y-52190
X135730Y-52190
X135730Y-59810
X138270Y-59810
X138270Y-65190
X135730Y-65190
X135730Y-72810
X135631Y-78091
X138270Y-39190
X135730Y-39190
X138171Y-78091
X135631Y-85711
X138171Y-85711
X135730Y-46810
X138270Y-33810
X135730Y-33810
X135730Y-26190
X138270Y-26190
T7
X104360Y-19960
X104360Y-8200
X108952Y-19960
X108952Y-8200
X54800Y-23500
X66560Y-23500
X54800Y-36700
X66560Y-36700
X54800Y-49700
X66560Y-49700
X66560Y-62610
X54800Y-62610
X66560Y-75700
X54800Y-75700
X84680Y-19960
X84680Y-8200
X89680Y-19960
X89680Y-8200
X94680Y-19960
X94680Y-8200
X99680Y-19960
X54800Y-10700
X66560Y-10700
X99680Y-8200
T8
X189270Y-93442
X188000Y-95347
X186730Y-93442
T9
X196490Y-60150
X186330Y-60150
X183790Y-60150
X183790Y-67770
X186330Y-67770
X196490Y-67770
X220490Y-79915
X210330Y-79915
X207790Y-79915
X207790Y-87535
X210330Y-87535
X220490Y-87535
X186330Y-40150
X196490Y-40150
X196490Y-28010
X186330Y-28010
X183790Y-28010
X183790Y-20390
X186330Y-20390
X196490Y-20390
X71190Y-10694
X133000Y-38000
X190350Y-80190
X180190Y-80190
X177650Y-80190
X177650Y-87810
X180190Y-87810
X190350Y-87810
X199000Y-37000
X181000Y-37000
X180000Y-17000
X198000Y-17000
X130000Y-9000
X183790Y-47770
X186330Y-47770
X196490Y-47770
X133000Y-76000
X71190Y-13234
X78810Y-13234
X78810Y-10694
X71190Y-15774
X78810Y-15774
X71190Y-26000
X78810Y-26000
X71190Y-23460
X78810Y-23460
X71190Y-28540
X78810Y-28540
X71190Y-39000
X78810Y-39000
X71190Y-36460
X78810Y-36460
X71190Y-41540
X78810Y-41540
X71190Y-52000
X78810Y-52000
X71190Y-49460
X78810Y-49460
X71190Y-54540
X78810Y-54540
X71190Y-65000
X78810Y-65000
X71190Y-62460
X78810Y-62460
X71190Y-67540
X78810Y-67540
X71190Y-78000
X78810Y-78000
X71190Y-75460
X78810Y-75460
X71190Y-80540
X78810Y-80540
X196490Y-8010
X186330Y-8010
X183790Y-8010
X183790Y-390
X186330Y-390
X196490Y-390
X204090Y-61450
X183790Y-40150
X158000Y-18000
X204090Y-41450
X204090Y-46950
X204090Y-21450
X204090Y-26950
X204090Y-1450
X204090Y-6950
X136520Y-95950
X136520Y-90450
X148160Y-90630
X148160Y-96130
X204090Y-66950
X178000Y-91000
X194000Y-90000
X156000Y-22000
X160000Y-7000
X81000Y-88000
X81000Y-72000
X129000Y-83000
X161000Y-88000
X48000Y-73000
X39000Y-74000
X197000Y-77000
X187000Y-77000
X199000Y-57000
X180000Y-57000
X85000Y-90203
X125000Y-85000
X85000Y-60000
X134203Y-24000
X133203Y-62406
X133203Y-49000
T10
X137390Y-15010
X139930Y-15010
X142470Y-15010
X145010Y-15010
X147550Y-15010
X150090Y-15010
X152630Y-15010
X155170Y-15010
X155170Y-6510
X152630Y-6510
X150090Y-6510
X147550Y-6510
X145010Y-6510
X142470Y-6510
X139930Y-6510
X137390Y-6510
X134850Y-6510
X134850Y-15010
T11
X87310Y-40920
X87310Y-38380
X112710Y-33300
X87310Y-33300
X87310Y-30760
X87310Y-28220
X112710Y-35840
X112710Y-38380
X112710Y-40920
X112710Y-30760
X112710Y-43460
X112710Y-46000
X112710Y-48540
X112710Y-51080
X112710Y-53620
X112710Y-56160
X112710Y-58700
X112710Y-61240
X87310Y-46000
X112710Y-28220
X112710Y-63780
X87310Y-63780
X87310Y-61240
X87310Y-58700
X87310Y-56160
X87310Y-53620
X87310Y-51080
X87310Y-43460
X87310Y-35840
X87310Y-48540
M30