M48
;GenerationSoftware,Autodesk,EAGLE,9.7.0*%
;CreationDate,2026-06-02T21:08:43Z*%
FMAT,2
ICI,OFF
METRIC,TZ,000.000
T11C0.600
T10C0.670
T9C0.800
T8C0.813
T7C0.981
T6C1.000
T5C1.016
T4C1.020
T3C1.060
T2C1.118
T1C1.200
%
G90
M71
T1
X-24000Y204734
X-9245Y292225
X-108010Y209230
X-110550Y209230
X-72010Y299140
X-74550Y299140
X-56010Y299360
X-53470Y299360
X-11784Y292225
X14000Y265540
X-24000Y207274
X14000Y263000
T2
X-81012Y247528
X-80672Y238528
X-48960Y201510
X-48960Y216750
X-91448Y227752
X-80522Y229148
X-43680Y213130
X-28440Y213130
X-44860Y219760
X-44860Y235000
X-18210Y219042
X-18210Y234282
X-10860Y219042
X-14400Y201900
X-14400Y217140
X-91298Y218372
X-80522Y218768
X-91298Y207992
X-62340Y214380
X-77580Y214380
X-91900Y277120
X-91900Y292360
X-108960Y228900
X-108960Y244140
X-62240Y226520
X-77480Y226520
X-73900Y277070
X-73900Y292310
X-62387Y234140
X-30240Y243157
X-77627Y234140
X-62387Y206910
X-77627Y206910
X-9380Y270000
X-24620Y270000
X-9380Y276990
X-24620Y276990
X-24480Y241947
X-9240Y241947
X-34000Y295620
X-34000Y280380
X-38620Y262000
X-23380Y262000
X-45480Y243157
X-54687Y276644
X-25258Y219042
X-25258Y234282
X-91789Y236752
X-10860Y234282
X-54687Y291884
X-56010Y216760
X-56010Y201520
X-77627Y241907
X-62387Y241907
T3
X-64820Y220000
X-75180Y220000
T4
X2811Y304679
X-2269Y304679
X5351Y304679
X271Y263459
X271Y304679
X-2269Y263459
X5351Y263459
X2811Y263459
T5
X-3313Y203792
X-773Y203792
X1767Y203792
X-5853Y203792
X16065Y203792
X13525Y203792
X8445Y203792
X10985Y203792
X5905Y203792
X-8393Y203792
T6
X-36730Y203900
X-78845Y274490
X-87495Y274490
X-59685Y274490
X-40685Y274490
X-49335Y274490
X-68335Y274490
X-39270Y203900
X-19675Y283000
X-28325Y283000
X-41810Y203900
X-34190Y203900
T7
X-84280Y298530
X-81740Y298530
X-65280Y298530
X-62740Y298530
X-46280Y298530
X-43740Y298530
X-12000Y285270
X-12000Y282730
T8
X-39140Y228930
X-31520Y228930
X-39140Y236550
X-23060Y214650
X-21155Y213380
X-18000Y263270
X-19905Y262000
X-36600Y236550
X-18000Y260730
X-34060Y228930
X-23060Y212110
X-31520Y236550
X-36600Y228930
X-34060Y236550
T9
X-30000Y202000
X-28000Y262000
X-20000Y270000
X-48370Y265310
X-42870Y265310
X-96252Y231502
X-101752Y231502
X-87130Y265450
X-81630Y265450
X-96230Y220620
X-101730Y220620
X-96300Y209800
X-101800Y209800
X-96160Y242800
X-101660Y242800
X-114090Y220800
X-108590Y220800
X-54200Y233050
X-54200Y227550
X-54200Y222050
X-20190Y287650
X-20190Y297810
X-20190Y300350
X-27810Y300350
X-27810Y297810
X-27810Y287650
X-54060Y244050
X-54060Y249550
X-54200Y238550
X-79230Y278690
X-79230Y288850
X-79230Y291390
X-86850Y291390
X-86850Y288850
X-86850Y278690
X-60230Y278740
X-60230Y288900
X-60230Y291440
X-67850Y291440
X-67850Y288900
X-67850Y278740
X-41230Y278690
X-41230Y288850
X-41230Y291390
X-48850Y291390
X-48850Y288850
X-28339Y272752
X-35959Y272752
X-28339Y270212
X-35959Y270212
X-28339Y275292
X-35959Y275292
X-38810Y222000
X-31190Y222000
X-38810Y224540
X-31190Y224540
X-38810Y219460
X-31190Y219460
X-48850Y278690
X-30000Y208000
T10
X-72735Y260322
X-70195Y260322
X-75275Y260322
X-54955Y268822
X-67655Y260322
X-65115Y260322
X-62575Y260322
X-60035Y260322
X-57495Y260322
X-54955Y260322
X-57495Y268822
X-60035Y268822
X-62575Y268822
X-65115Y268822
X-67655Y268822
X-70195Y268822
X-72735Y268822
X-75275Y268822
T11
X-4197Y232110
X-4197Y229570
X-4197Y227030
X-4197Y224490
X-4197Y221950
X-4197Y219410
X-4197Y216870
X-4197Y211790
X21203Y216870
X21203Y214330
X21203Y219410
X21203Y244810
X21203Y227030
X21203Y229570
X21203Y232110
X21203Y234650
X21203Y237190
X21203Y239730
X-4197Y214330
X21203Y242270
X21203Y247350
X-4197Y247350
X-4197Y244810
X-4197Y242270
X-4197Y239730
X-4197Y237190
X-4197Y234650
X21203Y211790
X-17000Y307000
X-17000Y282000
X-23934Y255104
X10000Y283000
X8000Y255000
X4000Y194000
X4000Y207000
X-63000Y252000
X-44000Y252000
X4000Y256500
X4000Y209000
X21203Y221950
X21203Y224490
M30