G04 EAGLE Gerber RS-274X export*
G75*
%MOMM*%
%FSLAX34Y34*%
%LPD*%
%INBottom Copper*%
%IPPOS*%
%AMOC8*
5,1,8,0,0,1.08239X$1,22.5*%
G01*
G04 Define Apertures*
%ADD10C,1.400000*%
%ADD11C,1.581000*%
%ADD12C,1.320800*%
%ADD13C,1.800000*%
%ADD14P,1.42962X8X292.5*%
%ADD15P,2.74927X8X247.5*%
%ADD16P,2.74927X8X112.5*%
%ADD17P,2.74927X8X292.5*%
%ADD18P,2.74927X8X22.5*%
%ADD19P,2.74927X8X202.5*%
%ADD20C,1.308000*%
%ADD21R,1.108000X1.108000*%
%ADD22C,1.108000*%
%ADD23R,1.178000X1.178000*%
%ADD24C,1.178000*%
%ADD25C,1.530000*%
%ADD26R,1.530000X1.530000*%
%ADD27C,1.524000*%
%ADD28R,1.508000X1.508000*%
%ADD29C,1.508000*%
%ADD30P,1.42962X8X112.5*%
%ADD31R,1.308000X1.308000*%
%ADD32R,1.590000X1.590000*%
%ADD33C,1.590000*%
%ADD34C,0.700000*%
%ADD35C,1.206400*%
%ADD36C,1.006400*%
D10*
X-483700Y2653100D03*
X-428700Y2653100D03*
X-962519Y2315018D03*
X-1017519Y2315018D03*
X-871300Y2654500D03*
X-816300Y2654500D03*
X-962300Y2206200D03*
X-1017300Y2206200D03*
X-963000Y2098000D03*
X-1018000Y2098000D03*
X-961600Y2428000D03*
X-1016600Y2428000D03*
X-1140900Y2208000D03*
X-1085900Y2208000D03*
X-542000Y2385500D03*
X-542000Y2330500D03*
X-542000Y2275500D03*
X-542000Y2220500D03*
X-540600Y2440500D03*
X-540600Y2495500D03*
D11*
X-842800Y2985300D03*
X-817400Y2985300D03*
X-652800Y2985300D03*
X-627400Y2985300D03*
X-462800Y2985300D03*
X-437400Y2985300D03*
D12*
X-391400Y2289300D03*
X-366000Y2289300D03*
X-366000Y2365500D03*
X-391400Y2365500D03*
X-340600Y2289300D03*
X-315200Y2289300D03*
X-340600Y2365500D03*
X-315200Y2365500D03*
D13*
X-1080100Y2092300D03*
X-1105500Y2092300D03*
X-720100Y2991400D03*
X-745500Y2991400D03*
X-560100Y2993600D03*
X-534700Y2993600D03*
D14*
X-230600Y2121100D03*
X-211550Y2133800D03*
X-230600Y2146500D03*
D15*
X-810123Y2475282D03*
X-917887Y2367518D03*
D16*
X-546867Y2766436D03*
X-546867Y2918836D03*
D17*
X-560100Y2167600D03*
X-560100Y2015200D03*
D18*
X-776268Y2419068D03*
X-623868Y2419068D03*
D16*
X-489600Y2015096D03*
X-489600Y2167496D03*
D18*
X-436800Y2131296D03*
X-284400Y2131296D03*
D16*
X-448600Y2197600D03*
X-448600Y2350000D03*
X-182100Y2190424D03*
X-182100Y2342824D03*
X-108600Y2190424D03*
X-108600Y2342824D03*
X-144005Y2019000D03*
X-144005Y2171400D03*
D15*
X-806718Y2385282D03*
X-914482Y2277518D03*
X-805218Y2291482D03*
X-912982Y2183718D03*
X-805218Y2187682D03*
X-912982Y2079918D03*
D19*
X-623400Y2143800D03*
X-775800Y2143800D03*
D16*
X-919000Y2771200D03*
X-919000Y2923600D03*
X-1089600Y2289000D03*
X-1089600Y2441400D03*
D19*
X-622400Y2265200D03*
X-774800Y2265200D03*
D16*
X-739000Y2770700D03*
X-739000Y2923100D03*
D19*
X-623868Y2341400D03*
X-776268Y2341400D03*
X-623868Y2069098D03*
X-776268Y2069098D03*
D20*
X-792300Y2786900D03*
X-792300Y2888500D03*
X-792300Y2913900D03*
X-868500Y2913900D03*
X-868500Y2888500D03*
X-868500Y2786900D03*
X-602300Y2787400D03*
X-602300Y2889000D03*
X-602300Y2914400D03*
X-678500Y2914400D03*
X-678500Y2889000D03*
X-678500Y2787400D03*
X-412300Y2786900D03*
X-412300Y2888500D03*
X-412300Y2913900D03*
X-488500Y2913900D03*
X-488500Y2888500D03*
X-488500Y2786900D03*
D21*
X212031Y2117900D03*
D22*
X212031Y2143300D03*
X212031Y2168700D03*
X212031Y2194100D03*
X212031Y2219500D03*
X212031Y2244900D03*
X212031Y2270300D03*
X212031Y2295700D03*
X212031Y2321100D03*
X212031Y2346500D03*
X212031Y2371900D03*
X212031Y2397300D03*
X212031Y2422700D03*
X212031Y2448100D03*
X212031Y2473500D03*
X-41969Y2473500D03*
X-41969Y2448100D03*
X-41969Y2422700D03*
X-41969Y2397300D03*
X-41969Y2371900D03*
X-41969Y2346500D03*
X-41969Y2321100D03*
X-41969Y2295700D03*
X-41969Y2270300D03*
X-41969Y2244900D03*
X-41969Y2219500D03*
X-41969Y2194100D03*
X-41969Y2168700D03*
X-41969Y2143300D03*
X-41969Y2117900D03*
D13*
X-240000Y2047340D03*
X-240000Y2072740D03*
D23*
X-752750Y2603220D03*
D24*
X-727350Y2603220D03*
X-701950Y2603220D03*
X-676550Y2603220D03*
X-651150Y2603220D03*
X-625750Y2603220D03*
X-600350Y2603220D03*
X-574950Y2603220D03*
X-549550Y2603220D03*
X-549550Y2688220D03*
X-574950Y2688220D03*
X-600350Y2688220D03*
X-625750Y2688220D03*
X-651150Y2688220D03*
X-676550Y2688220D03*
X-701950Y2688220D03*
X-727350Y2688220D03*
X-752750Y2688220D03*
D25*
X2710Y2634590D03*
X28110Y2634590D03*
X53510Y2634590D03*
D26*
X-22690Y2634590D03*
D25*
X2710Y3046790D03*
X28110Y3046790D03*
X53510Y3046790D03*
X-22690Y3046790D03*
D27*
X17667Y2045540D02*
X17667Y2030300D01*
X-7733Y2030300D02*
X-7733Y2045540D01*
X-33133Y2045540D02*
X-33133Y2030300D01*
X-58533Y2030300D02*
X-58533Y2045540D01*
X-83933Y2045540D02*
X-83933Y2030300D01*
X160648Y2030300D02*
X160648Y2045540D01*
X135248Y2045540D02*
X135248Y2030300D01*
X109848Y2030300D02*
X109848Y2045540D01*
X84448Y2045540D02*
X84448Y2030300D01*
X59048Y2030300D02*
X59048Y2045540D01*
D13*
X140000Y2630000D03*
X140000Y2655400D03*
D19*
X-93800Y2700000D03*
X-246200Y2700000D03*
X-93800Y2769900D03*
X-246200Y2769900D03*
D18*
X-244800Y2419467D03*
X-92400Y2419467D03*
D17*
X-340000Y2956200D03*
X-340000Y2803800D03*
D11*
X-120000Y2852700D03*
X-120000Y2827300D03*
D28*
X-196750Y2830000D03*
D29*
X-283250Y2830000D03*
D20*
X-201900Y2876500D03*
X-201900Y2978100D03*
X-201900Y3003500D03*
X-278100Y3003500D03*
X-278100Y2978100D03*
X-278100Y2876500D03*
D18*
X-386200Y2620000D03*
X-233800Y2620000D03*
D30*
X-180000Y2632700D03*
X-199050Y2620000D03*
X-180000Y2607300D03*
D19*
X-302400Y2431567D03*
X-454800Y2431567D03*
D16*
X-252581Y2190424D03*
X-252581Y2342824D03*
D28*
X-418100Y2039000D03*
D29*
X-392700Y2039000D03*
X-341900Y2039000D03*
X-367300Y2039000D03*
D28*
X-788450Y2744900D03*
D29*
X-874950Y2744900D03*
D28*
X-596850Y2744900D03*
D29*
X-683350Y2744900D03*
D28*
X-406850Y2744900D03*
D29*
X-493350Y2744900D03*
D13*
X-117845Y2922245D03*
X-92445Y2922245D03*
D20*
X-283395Y2727518D03*
X-359595Y2727518D03*
D31*
X-283395Y2702118D03*
D20*
X-359595Y2702118D03*
X-283395Y2752918D03*
X-359595Y2752918D03*
X-388100Y2220000D03*
X-311900Y2220000D03*
D31*
X-388100Y2245400D03*
D20*
X-311900Y2245400D03*
X-388100Y2194600D03*
X-311900Y2194600D03*
D32*
X-751800Y2200000D03*
D33*
X-648200Y2200000D03*
D34*
X-1140500Y2207625D02*
X-1140500Y2117300D01*
X-1140500Y2207625D02*
X-1140900Y2208000D01*
X-1140500Y2209250D01*
X-1115120Y2298680D02*
X-1107163Y2298680D01*
X-1140500Y2273300D02*
X-1140500Y2209250D01*
X-1140500Y2273300D02*
X-1115120Y2298680D01*
X-1107163Y2298680D02*
X-1090503Y2315341D01*
X-1067970Y2315341D01*
X-1057320Y2325990D01*
X-1057320Y2348523D01*
X-1140500Y2117300D02*
X-1115500Y2092300D01*
X-1105500Y2092300D01*
X-1057320Y2348523D02*
X-977843Y2428000D01*
X-961600Y2428000D01*
X-961600Y2381600D01*
X-947518Y2367518D01*
X-917887Y2367518D01*
X-962519Y2315018D02*
X-962519Y2292519D01*
X-947518Y2277518D01*
X-914482Y2277518D01*
X-880000Y2405405D02*
X-810123Y2475282D01*
X-880000Y2405405D02*
X-880000Y2310000D01*
X-912482Y2277518D01*
X-914482Y2277518D01*
X-962300Y2206200D02*
X-939818Y2183718D01*
X-912982Y2183718D01*
X-860000Y2332000D02*
X-806718Y2385282D01*
X-860000Y2332000D02*
X-860000Y2236700D01*
X-912982Y2183718D01*
X-963000Y2098000D02*
X-944918Y2079918D01*
X-912982Y2079918D01*
X-840000Y2256700D02*
X-805218Y2291482D01*
X-840000Y2256700D02*
X-840000Y2150000D01*
X-910082Y2079918D01*
X-912982Y2079918D01*
X-1035975Y2408625D02*
X-1016600Y2428000D01*
X-1035975Y2408625D02*
X-1047825Y2408625D01*
X-1064080Y2424880D02*
X-1073080Y2424880D01*
X-1089600Y2441400D01*
X-1064080Y2424880D02*
X-1047825Y2408625D01*
X-623868Y2341400D02*
X-586100Y2341400D01*
X-542000Y2385500D01*
X-542000Y2372000D01*
X-491300Y2321300D02*
X-410200Y2321300D01*
X-491300Y2321300D02*
X-542000Y2372000D01*
X-410200Y2321300D02*
X-366000Y2365500D01*
X-776268Y2341400D02*
X-776268Y2266668D01*
X-774800Y2265200D01*
X-805218Y2187682D02*
X-775800Y2158263D01*
X-775800Y2143800D01*
X-805218Y2187682D02*
X-776268Y2216632D01*
X-776268Y2266668D01*
X-542000Y2275500D02*
X-522000Y2295500D01*
X-542000Y2275500D02*
X-520000Y2253500D01*
X-520000Y2150000D01*
X-560100Y2109900D01*
X-560100Y2015200D01*
X-522000Y2295500D02*
X-397600Y2295500D01*
X-391400Y2289300D01*
X-390000Y2290700D01*
X-390000Y2310000D01*
X-370000Y2330000D01*
X-340000Y2330000D01*
X-340000Y2364900D01*
X-340600Y2365500D01*
X-574500Y2495500D02*
X-623868Y2446132D01*
X-623868Y2419068D01*
X-574500Y2495500D02*
X-540600Y2495500D01*
X-535500Y2495500D02*
X-490000Y2450000D01*
X-535500Y2495500D02*
X-540600Y2495500D01*
X-490000Y2450000D02*
X-490000Y2400000D01*
X-336367Y2386667D02*
X-315200Y2365500D01*
X-476667Y2386667D02*
X-490000Y2400000D01*
X-476667Y2386667D02*
X-336367Y2386667D01*
X-489600Y2245465D02*
X-489600Y2167496D01*
X-489600Y2245465D02*
X-465065Y2270000D01*
X-380000Y2270000D01*
X-366000Y2284000D01*
X-366000Y2289300D01*
X-489600Y2059600D02*
X-489600Y2015096D01*
X-489600Y2059600D02*
X-490000Y2060000D01*
X-460000Y2090000D01*
X-420000Y2090000D01*
X-378704Y2131296D01*
X-284400Y2131296D01*
X-211550Y2133800D02*
X-144005Y2066255D01*
X-144005Y2019000D01*
X-230600Y2146500D02*
X-217100Y2160000D01*
X-209051Y2160000D01*
X-171751Y2122700D01*
X-136259Y2122700D01*
X40000Y2290000D02*
X160000Y2170000D01*
X40000Y2290000D02*
X40000Y2440000D01*
X-10000Y2490000D02*
X-70000Y2490000D01*
X-180000Y2380000D01*
X-240000Y2380000D01*
X-270000Y2410000D01*
X-270000Y2450000D01*
X-330000Y2450000D02*
X-330000Y2408125D01*
X-292596Y2370721D02*
X-292596Y2332596D01*
X-292596Y2370721D02*
X-330000Y2408125D01*
X-292596Y2332596D02*
X-210424Y2250424D01*
X-168600Y2250424D02*
X-108600Y2190424D01*
X-168600Y2250424D02*
X-210424Y2250424D01*
X-330000Y2450000D02*
X-320000Y2460000D01*
X-280000Y2460000D01*
X-270000Y2450000D01*
X-105305Y2153654D02*
X-136259Y2122700D01*
X-105305Y2187129D02*
X-108600Y2190424D01*
X-105305Y2187129D02*
X-105305Y2153654D01*
X40000Y2440000D02*
X-10000Y2490000D01*
X160000Y2170000D02*
X160000Y2160000D01*
X180000Y2140000D01*
X208731Y2140000D01*
X212031Y2143300D01*
X-211676Y2220000D02*
X-311900Y2220000D01*
X-211676Y2220000D02*
X-182100Y2190424D01*
X-163076Y2171400D01*
X-144005Y2171400D01*
X-600350Y2603220D02*
X-625750Y2603220D01*
X-600350Y2603220D02*
X-574950Y2603220D01*
X-549550Y2603220D01*
X-300000Y2100000D02*
X-240000Y2100000D01*
X-300000Y2100000D02*
X-370000Y2100000D01*
X-418100Y2051900D01*
X-418100Y2039000D01*
X-252581Y2143081D02*
X-230600Y2121100D01*
X-252581Y2143081D02*
X-252581Y2190424D01*
X-256757Y2194600D02*
X-311900Y2194600D01*
X-256757Y2194600D02*
X-252581Y2190424D01*
X-230600Y2121100D02*
X-240000Y2111700D01*
X-240000Y2100000D01*
X-254422Y1974422D02*
X84448Y1974422D01*
X-300000Y2080000D02*
X-300000Y2100000D01*
D35*
X-300000Y2080000D03*
X-300000Y2020000D03*
D34*
X-240000Y2051527D02*
X-225000Y2066527D01*
X-225000Y2085000D01*
X-240000Y2100000D01*
X-240000Y2051527D02*
X-240000Y2047340D01*
X-676550Y2603220D02*
X-699660Y2626330D01*
X-788130Y2626330D02*
X-816300Y2654500D01*
X-788130Y2626330D02*
X-699660Y2626330D01*
X84448Y2037920D02*
X84448Y1974422D01*
X-549550Y2603220D02*
X-499670Y2653100D01*
X-483700Y2653100D01*
X-359595Y2752918D02*
X-342918Y2752918D01*
X-320000Y2730000D01*
X-320000Y2680000D01*
X-300000Y2660000D01*
X-260000Y2660000D02*
X-207300Y2660000D01*
X-260000Y2660000D02*
X-300000Y2660000D01*
X-207300Y2660000D02*
X-180000Y2632700D01*
X-460600Y2630000D02*
X-483700Y2653100D01*
X-460600Y2630000D02*
X-420000Y2630000D01*
X-390000Y2660000D01*
X-390000Y2730000D01*
X-367082Y2752918D01*
X-359595Y2752918D01*
X-651150Y2603220D02*
X-676550Y2603220D01*
X-651150Y2603220D02*
X-625750Y2603220D01*
X-300000Y2020000D02*
X-254422Y1974422D01*
X-295000Y2565000D02*
X40000Y2565000D01*
X95131Y2565000D01*
X212031Y2448100D01*
X84448Y2045552D02*
X84448Y2037920D01*
X84448Y2045552D02*
X40000Y2090000D01*
D36*
X40000Y2090000D03*
X40000Y2565000D03*
D34*
X-300000Y2570000D02*
X-300000Y2660000D01*
X-300000Y2570000D02*
X-295000Y2565000D01*
X-22690Y2634590D02*
X21900Y2590000D01*
X218100Y2448100D02*
X230000Y2460000D01*
X218100Y2448100D02*
X212031Y2448100D01*
X118787Y2590000D02*
X21900Y2590000D01*
X230000Y2478787D02*
X230000Y2460000D01*
X230000Y2478787D02*
X118787Y2590000D01*
X-117845Y2880210D02*
X-117845Y2922245D01*
X-117845Y2880210D02*
X-55840Y2818205D01*
X-55840Y2620725D01*
X-241300Y2601300D02*
X-241546Y2601300D01*
X-260000Y2619754D01*
X-260000Y2660000D01*
X-81869Y2594696D02*
X-55840Y2620725D01*
X-81869Y2594696D02*
X-234696Y2594696D01*
X-241300Y2601300D01*
X-182100Y2342824D02*
X-108600Y2342824D01*
X-108600Y2403267D01*
X-92400Y2419467D01*
X-70000Y2441867D01*
X-70000Y2450000D01*
X-46500Y2473500D01*
X-41969Y2473500D01*
X-1085900Y2208000D02*
X-1098800Y2220900D01*
X-1098800Y2279800D02*
X-1089600Y2289000D01*
X-1098800Y2279800D02*
X-1098800Y2220900D01*
X-1077530Y2211421D02*
X-1047970Y2211421D01*
X-1042749Y2206200D01*
X-1077530Y2211421D02*
X-1080950Y2208000D01*
X-1085900Y2208000D01*
X-1042749Y2206200D02*
X-1017300Y2206200D01*
X-1043537Y2289000D02*
X-1089600Y2289000D01*
X-1043537Y2289000D02*
X-1017519Y2315018D01*
X-1018000Y2098000D02*
X-1052000Y2098000D01*
X-1057700Y2092300D01*
X-1018000Y2205500D02*
X-1017300Y2206200D01*
X-1018000Y2205500D02*
X-1018000Y2098000D01*
X-648200Y2200000D02*
X-623400Y2175200D01*
X-623400Y2143800D01*
X-648200Y2200000D02*
X-542000Y2306200D01*
X-970000Y2050000D02*
X-1018000Y2098000D01*
X-628102Y2139098D02*
X-623400Y2143800D01*
X-628102Y2139098D02*
X-660000Y2139098D01*
X-706268Y2139098D01*
X-870000Y2050000D02*
X-970000Y2050000D01*
X-870000Y2050000D02*
X-860000Y2060000D01*
X-860000Y2070000D01*
X-777170Y2070000D01*
X-776268Y2069098D01*
X-706268Y2139098D01*
X-660000Y2360000D02*
X-650000Y2370000D01*
X-660000Y2360000D02*
X-660000Y2320000D01*
X-650000Y2310000D01*
X-562500Y2310000D01*
X-542000Y2330500D01*
X-542000Y2306200D01*
X-436800Y2131296D02*
X-408704Y2131296D01*
X-330000Y2210000D01*
X-330000Y2274500D01*
X-315200Y2289300D01*
X-600000Y2370000D02*
X-650000Y2370000D01*
X-600000Y2370000D02*
X-580000Y2390000D01*
X-580000Y2420000D01*
X-559500Y2440500D01*
X-540600Y2440500D01*
X-436800Y2131296D02*
X-458096Y2110000D01*
X-500000Y2110000D01*
X-530000Y2080000D01*
X-530000Y1996396D01*
X-530000Y1986500D01*
X-530000Y1986396D01*
X-620000Y2030000D02*
X-650000Y2030000D01*
X-660000Y2040000D01*
X-660000Y2139098D01*
X-370000Y2036300D02*
X-367300Y2039000D01*
X-370000Y2036300D02*
X-370000Y2020000D01*
X-380000Y2010000D01*
X-450000Y2010000D01*
X-1057700Y2092300D02*
X-1080100Y2092300D01*
X-620000Y2030000D02*
X-576500Y1986500D01*
X-530000Y1986396D02*
X-473604Y1986396D01*
X-530000Y1986500D02*
X-576500Y1986500D01*
X-473604Y1986396D02*
X-450000Y2010000D01*
X-560100Y2132866D02*
X-560100Y2167600D01*
X-560100Y2132866D02*
X-623868Y2069098D01*
X-560100Y2167600D02*
X-542000Y2185700D01*
X-542000Y2220500D01*
X-1130000Y2320000D02*
X-1130000Y2440000D01*
X-776268Y2419068D02*
X-776268Y2486268D01*
X-790000Y2500000D01*
X-433100Y2365500D02*
X-391400Y2365500D01*
X-433100Y2365500D02*
X-448600Y2350000D01*
X-488600Y2350000D01*
X-510000Y2371400D01*
X-510000Y2440000D01*
X-530000Y2460000D01*
X-570000Y2460000D01*
X-600000Y2430000D01*
X-747200Y2390000D02*
X-776268Y2419068D01*
X-600000Y2430000D02*
X-600000Y2400000D01*
X-610000Y2390000D01*
X-747200Y2390000D01*
X-1080000Y2030000D02*
X-1160000Y2110000D01*
X-1080000Y2030000D02*
X-690000Y2030000D01*
X-660000Y2000000D01*
X-610000Y2000000D01*
X-1100000Y2470000D02*
X-1130000Y2440000D01*
X-1100000Y2470000D02*
X-870000Y2470000D01*
X-840000Y2500000D01*
X-790000Y2500000D01*
X-450000Y1990000D02*
X-360000Y1990000D01*
X-340000Y2010000D01*
X-340000Y2037100D01*
X-341900Y2039000D01*
X-1130000Y2320000D02*
X-1160000Y2290000D01*
X-1160000Y2110000D01*
X-610000Y2000000D02*
X-576896Y1966896D01*
X-473104Y1966896D01*
X-450000Y1990000D01*
X-909000Y2923600D02*
X-847300Y2985300D01*
X-909000Y2923600D02*
X-919000Y2923600D01*
X-847300Y2985300D02*
X-842800Y2985300D01*
X-752750Y2688220D02*
X-770970Y2670000D01*
X-830000Y2670000D01*
X-850000Y2650000D01*
X-850000Y2640000D01*
X-860000Y2630000D01*
X-890000Y2630000D01*
X-900000Y2640000D01*
X-900000Y2680000D01*
X-945000Y2730000D01*
X-945000Y2800000D01*
X-930000Y2820000D01*
X-910000Y2820000D01*
X-868500Y2861500D01*
X-868500Y2888500D01*
X-840000Y2917000D01*
X-840000Y2962700D01*
X-817400Y2985300D01*
X-739000Y2923100D02*
X-676800Y2985300D01*
X-652800Y2985300D01*
X-546867Y2918836D02*
X-480402Y2985300D01*
X-462800Y2985300D01*
X-677500Y2890000D02*
X-678500Y2889000D01*
X-677500Y2890000D02*
X-650000Y2890000D01*
X-627400Y2912600D01*
X-627400Y2985300D01*
X-727350Y2712650D02*
X-727350Y2688220D01*
X-727350Y2712650D02*
X-710000Y2730000D01*
X-710000Y2857500D01*
X-678500Y2889000D01*
X-488500Y2888500D02*
X-461500Y2888500D01*
X-437400Y2912600D01*
X-437400Y2985300D01*
X-630000Y2760170D02*
X-701950Y2688220D01*
X-630000Y2760170D02*
X-630000Y2810000D01*
X-551500Y2888500D01*
X-488500Y2888500D01*
X-760000Y2819200D02*
X-792300Y2786900D01*
X-760000Y2819200D02*
X-760000Y2951500D01*
X-720100Y2991400D01*
X-569850Y2819850D02*
X-602300Y2787400D01*
X-720100Y2991400D02*
X-691500Y3020000D01*
X-550000Y3020000D01*
X-520000Y3050000D01*
X-518167Y2798167D02*
X-518167Y2738167D01*
X-518167Y2798167D02*
X-539850Y2819850D01*
X-569850Y2819850D01*
X-412300Y2786900D02*
X-412300Y2781282D01*
X-467742Y2725840D01*
X-505840Y2725840D02*
X-518167Y2738167D01*
X-505840Y2725840D02*
X-467742Y2725840D01*
X-412300Y2847700D02*
X-380000Y2880000D01*
X-412300Y2847700D02*
X-412300Y2786900D01*
X-430000Y3050000D02*
X-520000Y3050000D01*
X-430000Y3050000D02*
X-390000Y3010000D01*
X-390000Y2910000D01*
X-380000Y2900000D01*
X-380000Y2880000D01*
X-780000Y2926200D02*
X-792300Y2913900D01*
X-780000Y2926200D02*
X-780000Y2970000D01*
X-758600Y2991400D01*
X-745500Y2991400D01*
X-602300Y2914400D02*
X-580000Y2936700D01*
X-580000Y2973700D01*
X-560100Y2993600D01*
X-534700Y2993600D02*
X-508300Y3020000D01*
X-412300Y3002300D02*
X-412300Y2913900D01*
X-412300Y3002300D02*
X-430000Y3020000D01*
X-508300Y3020000D01*
X-392700Y2047300D02*
X-392700Y2039000D01*
X59048Y2037920D02*
X59048Y1990000D01*
X-245419Y1990000D01*
X-280000Y2024581D01*
X-380000Y2060000D02*
X-392700Y2047300D01*
X-380000Y2060000D02*
X-320000Y2060000D01*
X-280000Y2060000D01*
X-270000Y2060000D01*
X-257260Y2072740D01*
X-240000Y2072740D01*
X-280000Y2060000D02*
X-280000Y2024581D01*
X-201900Y2876500D02*
X-220000Y2894600D01*
X-220000Y2960000D01*
X-201900Y2876500D02*
X-186750Y2861350D01*
X-186750Y2840000D01*
X-196750Y2830000D01*
X-130000Y2700000D02*
X-93800Y2700000D01*
X-130000Y2700000D02*
X-200000Y2770000D01*
X-200000Y2800000D02*
X-200000Y2826750D01*
X-200000Y2800000D02*
X-200000Y2770000D01*
X-200000Y2826750D02*
X-196750Y2830000D01*
X-332660Y2796460D02*
X-340000Y2803800D01*
X-220000Y2960000D02*
X-201900Y2978100D01*
D35*
X-280000Y2620000D03*
X-200000Y2700000D03*
D34*
X-130000Y2700000D01*
X-320000Y2060000D02*
X-320000Y2010000D01*
X-264422Y1954422D01*
X130000Y1954422D01*
X-30000Y2578000D02*
X-239024Y2578000D01*
X-30000Y2578000D02*
X107531Y2578000D01*
X-239024Y2578000D02*
X-280000Y2620000D01*
X250000Y2074422D02*
X130000Y1954422D01*
X212031Y2473500D02*
X107531Y2578000D01*
X-30000Y2578000D02*
X-30000Y2618115D01*
X-36340Y2624455D01*
X-21065Y2660000D02*
X30000Y2660000D01*
X53510Y2636490D01*
X53510Y2634590D01*
X99320Y2680400D01*
X250000Y2566613D02*
X250000Y2074422D01*
X250000Y2566613D02*
X136213Y2680400D01*
X99320Y2680400D01*
X-36340Y2644725D02*
X-36340Y2624455D01*
X-36340Y2644725D02*
X-21065Y2660000D01*
X-203540Y2796460D02*
X-332660Y2796460D01*
X-203540Y2796460D02*
X-200000Y2800000D01*
X114300Y2295700D02*
X212031Y2295700D01*
X114300Y2295700D02*
X90000Y2320000D01*
X90000Y2450000D01*
X20000Y2520000D02*
X-110000Y2520000D01*
X-160000Y2480000D01*
X-460000Y2480000D01*
X-550500Y2570500D01*
X-726045Y2570500D01*
X20000Y2520000D02*
X90000Y2450000D01*
X-726045Y2570500D02*
X-727350Y2571805D01*
X-727350Y2603220D01*
X118900Y2321100D02*
X212031Y2321100D01*
X118900Y2321100D02*
X110000Y2330000D01*
X110000Y2460000D01*
X35000Y2535000D02*
X-120000Y2535000D01*
X-170000Y2500000D01*
X-450000Y2500000D01*
X-540000Y2590000D01*
X-698730Y2590000D01*
X35000Y2535000D02*
X110000Y2460000D01*
X-698730Y2590000D02*
X-701950Y2593220D01*
X-701950Y2603220D01*
X143500Y2346500D02*
X212031Y2346500D01*
X143500Y2346500D02*
X130000Y2360000D01*
X130000Y2472222D01*
X52222Y2550000D02*
X-140000Y2550000D01*
X-190000Y2520000D01*
X-440000Y2520000D01*
D36*
X-440000Y2520000D03*
X-630000Y2520000D03*
D34*
X52222Y2550000D02*
X130000Y2472222D01*
X-630000Y2520000D02*
X-704380Y2520000D01*
X-752750Y2568370D01*
X-752750Y2603220D01*
X-41969Y2117900D02*
X-41969Y2046756D01*
X-33133Y2037920D01*
X-58533Y2228336D02*
X-41969Y2244900D01*
X-58533Y2228336D02*
X-58533Y2037920D01*
X-79900Y2100100D02*
X-79900Y2232369D01*
X-41969Y2270300D01*
X-79900Y2100100D02*
X-110000Y2070000D01*
X7909Y2006680D02*
X17667Y2016438D01*
X17667Y2037920D01*
X-110000Y2020000D02*
X-110000Y2070000D01*
X-110000Y2020000D02*
X-96680Y2006680D01*
X7909Y2006680D01*
X-7733Y2261464D02*
X-41969Y2295700D01*
X-7733Y2261464D02*
X-7733Y2037920D01*
X10000Y2269131D02*
X-41969Y2321100D01*
X10000Y2269131D02*
X10000Y2100000D01*
X40000Y2070000D01*
D36*
X40000Y2070000D03*
X40000Y1940000D03*
D34*
X0Y3024100D02*
X-22690Y3046790D01*
X0Y3024100D02*
X0Y2900000D01*
X-40000Y2860000D01*
X-40000Y2730000D01*
X-10000Y2700000D01*
X270000Y2070000D02*
X140000Y1940000D01*
X40000Y1940000D01*
X-10000Y2700000D02*
X150048Y2700000D01*
X270000Y2580048D01*
X270000Y2070000D01*
X-302400Y2412400D02*
X-302400Y2431567D01*
X-275000Y2385000D02*
X-275000Y2365000D01*
X-275000Y2385000D02*
X-302400Y2412400D01*
X-275000Y2365000D02*
X-252824Y2342824D01*
X-252581Y2342824D01*
X-219757Y2310000D01*
X-78469Y2310000D01*
X-41969Y2346500D01*
X135248Y2124752D02*
X135248Y2037920D01*
X29500Y2300431D02*
X-41969Y2371900D01*
X29500Y2300431D02*
X29500Y2230500D01*
X135248Y2124752D01*
X168100Y2371900D02*
X212031Y2371900D01*
X168100Y2371900D02*
X150000Y2390000D01*
X150000Y2480000D01*
X80000Y2550000D01*
D36*
X80000Y2550000D03*
X100000Y2830000D03*
D34*
X20000Y2910000D01*
X20000Y3029500D02*
X2710Y3046790D01*
X20000Y3029500D02*
X20000Y2910000D01*
X28110Y3046790D02*
X2710Y3046790D01*
X2710Y2634590D02*
X37300Y2600000D01*
X110000Y2600000D01*
X140000Y2630000D01*
X52700Y2610000D02*
X28110Y2634590D01*
X52700Y2610000D02*
X94600Y2610000D01*
X140000Y2655400D01*
X4375Y2505000D02*
X-90000Y2505000D01*
X70000Y2439375D02*
X70000Y2320000D01*
X145100Y2244900D01*
X212031Y2244900D01*
X-140533Y2459467D02*
X-204800Y2459467D01*
X-244800Y2419467D01*
X-140533Y2459467D02*
X-90000Y2505000D01*
X-340000Y2666200D02*
X-386200Y2620000D01*
X-340000Y2666200D02*
X-340000Y2710000D01*
X-357518Y2727518D01*
X-359595Y2727518D01*
X4375Y2505000D02*
X70000Y2439375D01*
D36*
X-239336Y2551044D03*
D34*
X-239336Y2552721D01*
X-318921Y2552721D02*
X-386200Y2620000D01*
X-318921Y2552721D02*
X-239336Y2552721D01*
X-233800Y2620000D02*
X-199050Y2620000D01*
X-340000Y2956200D02*
X-340000Y3000000D01*
X-290000Y3050000D01*
X-150000Y2862700D02*
X-140000Y2852700D01*
X-120000Y2852700D01*
X-176565Y3050000D02*
X-290000Y3050000D01*
X-176565Y3050000D02*
X-150000Y3023435D01*
X-150000Y2862700D01*
X-283250Y2830000D02*
X-303250Y2850000D01*
X-303250Y2896750D01*
X-278100Y2921900D01*
X-278100Y2978100D01*
X-120000Y2827300D02*
X-107300Y2827300D01*
X-190000Y3030000D02*
X-226200Y3030000D01*
X-278100Y2978100D01*
X-190000Y3030000D02*
X-169500Y3009500D01*
X-169500Y2852535D02*
X-144265Y2827300D01*
X-120000Y2827300D01*
X-169500Y2852535D02*
X-169500Y3009500D01*
X-167800Y2619500D02*
X-100500Y2619500D01*
X-167800Y2619500D02*
X-180000Y2607300D01*
X-100500Y2619500D02*
X-75100Y2644900D01*
X-75100Y2795100D01*
X-107300Y2827300D01*
X-871300Y2668700D02*
X-871300Y2654500D01*
X-871300Y2668700D02*
X-870000Y2670000D01*
X-840000Y2700000D01*
X-790000Y2743350D02*
X-788450Y2744900D01*
X-790000Y2743350D02*
X-790000Y2700000D01*
X-840000Y2700000D01*
X-919000Y2739000D02*
X-919000Y2771200D01*
X-919000Y2739000D02*
X-870000Y2690000D01*
X-870000Y2670000D01*
X-788450Y2744900D02*
X-762650Y2770700D01*
X-739000Y2770700D01*
X-571330Y2710000D02*
X-549550Y2688220D01*
X-571330Y2710000D02*
X-590000Y2710000D01*
X-596850Y2716850D01*
X-596850Y2744900D01*
X-568402Y2744900D02*
X-546867Y2766436D01*
X-568402Y2744900D02*
X-596850Y2744900D01*
X-310000Y2970000D02*
X-278100Y3001900D01*
X-278100Y3003500D01*
X-430000Y2654400D02*
X-428700Y2653100D01*
X-430000Y2660000D02*
X-430000Y2721750D01*
X-406850Y2744900D01*
X-547770Y2690000D02*
X-549550Y2688220D01*
X-547770Y2690000D02*
X-460000Y2690000D01*
X-430000Y2660000D01*
X-430000Y2654400D01*
X-840200Y2850000D02*
X-919000Y2771200D01*
X-800000Y2990000D02*
X-740000Y3050000D01*
X-560000Y3050000D01*
X-540000Y3070000D01*
X-840000Y2850000D02*
X-840200Y2850000D01*
X-840000Y2850000D02*
X-840000Y2880000D01*
X-810000Y2910000D01*
X-810000Y2940000D01*
X-800000Y2950000D01*
X-800000Y2990000D01*
X-396850Y2773296D02*
X-396850Y2754900D01*
X-406850Y2744900D01*
X-396850Y2773296D02*
X-379760Y2790386D01*
X-320000Y2910246D02*
X-320000Y2920000D01*
X-320000Y2910246D02*
X-379760Y2850486D01*
X-379760Y2790386D01*
X-380000Y3070000D02*
X-540000Y3070000D01*
X-380000Y3070000D02*
X-360000Y3050000D01*
X-360000Y3010000D01*
X-370000Y3000000D01*
X-370000Y2930000D01*
X-360000Y2920000D01*
X-320000Y2920000D01*
X-310000Y2930000D01*
X-310000Y2970000D01*
X110000Y2000000D02*
X150000Y2000000D01*
X230000Y2080000D01*
X110000Y2000000D02*
X109848Y2000152D01*
X109848Y2037920D01*
X230000Y2252331D02*
X212031Y2270300D01*
X230000Y2252331D02*
X230000Y2080000D01*
X-454800Y2431567D02*
X-470000Y2446767D01*
X-470000Y2460000D01*
X-520000Y2510000D01*
X53510Y3046790D02*
X10300Y3090000D01*
X-560000Y3090000D02*
X-580000Y3070000D01*
X-760000Y3070000D01*
X-820000Y3010000D01*
X-880000Y3010000D01*
X-960000Y2930000D01*
X-960000Y2720000D01*
X-920000Y2680000D01*
X-920000Y2640000D01*
X-875110Y2595110D01*
X-600000Y2510000D02*
X-520000Y2510000D01*
X-810000Y2595110D02*
X-875110Y2595110D01*
X-810000Y2595110D02*
X-714890Y2500000D01*
X-610000Y2500000D01*
X-600000Y2510000D01*
X-560000Y3090000D02*
X10300Y3090000D01*
X-810500Y2809350D02*
X-874950Y2744900D01*
X-810500Y2809350D02*
X-810500Y2870300D01*
X-792300Y2888500D01*
X-650000Y2850000D02*
X-611000Y2889000D01*
X-602300Y2889000D01*
X-650000Y2778250D02*
X-683350Y2744900D01*
X-650000Y2778250D02*
X-650000Y2850000D01*
X-493350Y2744900D02*
X-460000Y2778250D01*
X-460000Y2840800D01*
X-412300Y2888500D01*
X-119900Y2769900D02*
X-93800Y2769900D01*
X-119900Y2769900D02*
X-170000Y2820000D01*
D36*
X-170000Y2820000D03*
X-170000Y3070000D03*
D34*
X-92445Y2992445D01*
X-92445Y2922245D01*
X-248318Y2702118D02*
X-283395Y2702118D01*
X-248318Y2702118D02*
X-246200Y2700000D01*
X-272482Y2727518D02*
X-283395Y2727518D01*
X-272482Y2727518D02*
X-246200Y2753800D01*
X-246200Y2769900D01*
X-448600Y2228600D02*
X-448600Y2197600D01*
X-448600Y2228600D02*
X-450000Y2230000D01*
X-434600Y2245400D01*
X-388100Y2245400D01*
X-388100Y2220000D02*
X-370000Y2220000D01*
X-350600Y2239400D01*
X-350600Y2279300D02*
X-340600Y2289300D01*
X-350600Y2279300D02*
X-350600Y2239400D01*
X-622400Y2265200D02*
X-644800Y2287600D01*
X-751800Y2233400D02*
X-751800Y2200000D01*
X-751800Y2233400D02*
X-697600Y2287600D01*
X-644800Y2287600D01*
M02*
