G04 EAGLE Gerber RS-274X export*
G75*
%MOMM*%
%FSLAX34Y34*%
%LPD*%
%IN*%
%IPPOS*%
%AMOC8*
5,1,8,0,0,1.08239X$1,22.5*%
G01*
G04 Define Apertures*
%ADD10C,0.254000*%
D10*
X-1190000Y2070000D02*
X-1189429Y2056927D01*
X-1187721Y2043953D01*
X-1184889Y2031177D01*
X-1180954Y2018697D01*
X-1175946Y2006607D01*
X-1169904Y1995000D01*
X-1162873Y1983964D01*
X-1154907Y1973582D01*
X-1146066Y1963934D01*
X-1136418Y1955093D01*
X-1126036Y1947127D01*
X-1115000Y1940096D01*
X-1103393Y1934054D01*
X-1091303Y1929046D01*
X-1078823Y1925111D01*
X-1066047Y1922279D01*
X-1053073Y1920571D01*
X-1040000Y1920000D01*
X150000Y1920000D01*
X163073Y1920571D01*
X176047Y1922279D01*
X188823Y1925111D01*
X201303Y1929046D01*
X213393Y1934054D01*
X225000Y1940096D01*
X236036Y1947127D01*
X246418Y1955093D01*
X256066Y1963934D01*
X264907Y1973582D01*
X272873Y1983964D01*
X279904Y1995000D01*
X285946Y2006607D01*
X290954Y2018697D01*
X294889Y2031177D01*
X297721Y2043953D01*
X299429Y2056927D01*
X300000Y2070000D01*
X300000Y2560000D01*
X300794Y2571823D01*
X300554Y2583670D01*
X299282Y2595452D01*
X296989Y2607077D01*
X293691Y2618459D01*
X289413Y2629510D01*
X284189Y2640146D01*
X278058Y2650286D01*
X271066Y2659853D01*
X263267Y2668774D01*
X254720Y2676982D01*
X245490Y2684413D01*
X235648Y2691012D01*
X225268Y2696728D01*
X214429Y2701518D01*
X203215Y2705344D01*
X191709Y2708179D01*
X180000Y2710000D01*
X175642Y2710190D01*
X171318Y2710760D01*
X167059Y2711704D01*
X162899Y2713015D01*
X158869Y2714685D01*
X155000Y2716699D01*
X151321Y2719042D01*
X147861Y2721698D01*
X144645Y2724645D01*
X141698Y2727861D01*
X139042Y2731321D01*
X136699Y2735000D01*
X134685Y2738869D01*
X133015Y2742899D01*
X131704Y2747059D01*
X130760Y2751318D01*
X130190Y2755642D01*
X130000Y2760000D01*
X130000Y3020000D01*
X129658Y3027844D01*
X128633Y3035628D01*
X126933Y3043294D01*
X124572Y3050782D01*
X121568Y3058036D01*
X117942Y3065000D01*
X113724Y3071622D01*
X108944Y3077851D01*
X103640Y3083640D01*
X97851Y3088944D01*
X91622Y3093724D01*
X85000Y3097942D01*
X78036Y3101568D01*
X70782Y3104572D01*
X63294Y3106933D01*
X55628Y3108633D01*
X47844Y3109658D01*
X40000Y3110000D01*
X-930379Y3110000D01*
X-938223Y3109658D01*
X-946007Y3108633D01*
X-953673Y3106933D01*
X-961161Y3104572D01*
X-968415Y3101568D01*
X-975379Y3097942D01*
X-982001Y3093724D01*
X-988230Y3088944D01*
X-994019Y3083640D01*
X-999323Y3077851D01*
X-1004103Y3071622D01*
X-1008321Y3065000D01*
X-1011947Y3058036D01*
X-1014951Y3050782D01*
X-1017312Y3043294D01*
X-1019012Y3035628D01*
X-1020037Y3027844D01*
X-1020379Y3020000D01*
X-1020379Y2760000D01*
X-1020569Y2755642D01*
X-1021139Y2751318D01*
X-1022083Y2747059D01*
X-1023394Y2742899D01*
X-1025064Y2738869D01*
X-1027078Y2735000D01*
X-1029421Y2731321D01*
X-1032077Y2727861D01*
X-1035024Y2724645D01*
X-1038240Y2721698D01*
X-1041700Y2719042D01*
X-1045379Y2716699D01*
X-1049248Y2714685D01*
X-1053278Y2713015D01*
X-1057438Y2711704D01*
X-1061697Y2710760D01*
X-1066021Y2710190D01*
X-1070379Y2710000D01*
X-1081638Y2708635D01*
X-1092736Y2706294D01*
X-1103587Y2702995D01*
X-1114109Y2698763D01*
X-1124222Y2693629D01*
X-1133850Y2687634D01*
X-1142918Y2680823D01*
X-1151358Y2673247D01*
X-1159106Y2664964D01*
X-1166102Y2656037D01*
X-1172294Y2646535D01*
X-1177634Y2636529D01*
X-1182082Y2626096D01*
X-1185603Y2615315D01*
X-1188171Y2604268D01*
X-1189767Y2593039D01*
X-1190378Y2581714D01*
X-1190000Y2570379D01*
X-1190000Y2070000D01*
M02*
