G04 EAGLE Gerber RS-274X export*
G75*
%MOMM*%
%FSLAX34Y34*%
%LPD*%
%INSoldermask Bottom*%
%IPPOS*%
%AMOC8*
5,1,8,0,0,1.08239X$1,22.5*%
G01*
G04 Define Apertures*
%ADD10C,1.603200*%
%ADD11C,1.784200*%
%ADD12C,1.524000*%
%ADD13C,2.003200*%
%ADD14P,1.64956X8X292.5*%
%ADD15P,2.96921X8X247.5*%
%ADD16P,2.96921X8X112.5*%
%ADD17P,2.96921X8X292.5*%
%ADD18P,2.96921X8X22.5*%
%ADD19P,2.96921X8X202.5*%
%ADD20C,1.511200*%
%ADD21R,1.311200X1.311200*%
%ADD22C,1.311200*%
%ADD23R,1.381200X1.381200*%
%ADD24C,1.381200*%
%ADD25C,1.733200*%
%ADD26R,1.733200X1.733200*%
%ADD27C,1.727200*%
%ADD28R,1.711200X1.711200*%
%ADD29C,1.711200*%
%ADD30P,1.64956X8X112.5*%
%ADD31R,1.511200X1.511200*%
%ADD32R,1.793200X1.793200*%
%ADD33C,1.793200*%
%ADD34C,1.409600*%
%ADD35C,1.209600*%
D10*
X-483700Y2653100D03*
X-428700Y2653100D03*
X-962519Y2315018D03*
X-1017519Y2315018D03*
X-871300Y2654500D03*
X-816300Y2654500D03*
X-962300Y2206200D03*
X-1017300Y2206200D03*
X-963000Y2098000D03*
X-1018000Y2098000D03*
X-961600Y2428000D03*
X-1016600Y2428000D03*
X-1140900Y2208000D03*
X-1085900Y2208000D03*
X-542000Y2385500D03*
X-542000Y2330500D03*
X-542000Y2275500D03*
X-542000Y2220500D03*
X-540600Y2440500D03*
X-540600Y2495500D03*
D11*
X-842800Y2985300D03*
X-817400Y2985300D03*
X-652800Y2985300D03*
X-627400Y2985300D03*
X-462800Y2985300D03*
X-437400Y2985300D03*
D12*
X-391400Y2289300D03*
X-366000Y2289300D03*
X-366000Y2365500D03*
X-391400Y2365500D03*
X-340600Y2289300D03*
X-315200Y2289300D03*
X-340600Y2365500D03*
X-315200Y2365500D03*
D13*
X-1080100Y2092300D03*
X-1105500Y2092300D03*
X-720100Y2991400D03*
X-745500Y2991400D03*
X-560100Y2993600D03*
X-534700Y2993600D03*
D14*
X-230600Y2121100D03*
X-211550Y2133800D03*
X-230600Y2146500D03*
D15*
X-810123Y2475282D03*
X-917887Y2367518D03*
D16*
X-546867Y2766436D03*
X-546867Y2918836D03*
D17*
X-560100Y2167600D03*
X-560100Y2015200D03*
D18*
X-776268Y2419068D03*
X-623868Y2419068D03*
D16*
X-489600Y2015096D03*
X-489600Y2167496D03*
D18*
X-436800Y2131296D03*
X-284400Y2131296D03*
D16*
X-448600Y2197600D03*
X-448600Y2350000D03*
X-182100Y2190424D03*
X-182100Y2342824D03*
X-108600Y2190424D03*
X-108600Y2342824D03*
X-144005Y2019000D03*
X-144005Y2171400D03*
D15*
X-806718Y2385282D03*
X-914482Y2277518D03*
X-805218Y2291482D03*
X-912982Y2183718D03*
X-805218Y2187682D03*
X-912982Y2079918D03*
D19*
X-623400Y2143800D03*
X-775800Y2143800D03*
D16*
X-919000Y2771200D03*
X-919000Y2923600D03*
X-1089600Y2289000D03*
X-1089600Y2441400D03*
D19*
X-622400Y2265200D03*
X-774800Y2265200D03*
D16*
X-739000Y2770700D03*
X-739000Y2923100D03*
D19*
X-623868Y2341400D03*
X-776268Y2341400D03*
X-623868Y2069098D03*
X-776268Y2069098D03*
D20*
X-792300Y2786900D03*
X-792300Y2888500D03*
X-792300Y2913900D03*
X-868500Y2913900D03*
X-868500Y2888500D03*
X-868500Y2786900D03*
X-602300Y2787400D03*
X-602300Y2889000D03*
X-602300Y2914400D03*
X-678500Y2914400D03*
X-678500Y2889000D03*
X-678500Y2787400D03*
X-412300Y2786900D03*
X-412300Y2888500D03*
X-412300Y2913900D03*
X-488500Y2913900D03*
X-488500Y2888500D03*
X-488500Y2786900D03*
D21*
X212031Y2117900D03*
D22*
X212031Y2143300D03*
X212031Y2168700D03*
X212031Y2194100D03*
X212031Y2219500D03*
X212031Y2244900D03*
X212031Y2270300D03*
X212031Y2295700D03*
X212031Y2321100D03*
X212031Y2346500D03*
X212031Y2371900D03*
X212031Y2397300D03*
X212031Y2422700D03*
X212031Y2448100D03*
X212031Y2473500D03*
X-41969Y2473500D03*
X-41969Y2448100D03*
X-41969Y2422700D03*
X-41969Y2397300D03*
X-41969Y2371900D03*
X-41969Y2346500D03*
X-41969Y2321100D03*
X-41969Y2295700D03*
X-41969Y2270300D03*
X-41969Y2244900D03*
X-41969Y2219500D03*
X-41969Y2194100D03*
X-41969Y2168700D03*
X-41969Y2143300D03*
X-41969Y2117900D03*
D13*
X-240000Y2047340D03*
X-240000Y2072740D03*
D23*
X-752750Y2603220D03*
D24*
X-727350Y2603220D03*
X-701950Y2603220D03*
X-676550Y2603220D03*
X-651150Y2603220D03*
X-625750Y2603220D03*
X-600350Y2603220D03*
X-574950Y2603220D03*
X-549550Y2603220D03*
X-549550Y2688220D03*
X-574950Y2688220D03*
X-600350Y2688220D03*
X-625750Y2688220D03*
X-651150Y2688220D03*
X-676550Y2688220D03*
X-701950Y2688220D03*
X-727350Y2688220D03*
X-752750Y2688220D03*
D25*
X2710Y2634590D03*
X28110Y2634590D03*
X53510Y2634590D03*
D26*
X-22690Y2634590D03*
D25*
X2710Y3046790D03*
X28110Y3046790D03*
X53510Y3046790D03*
X-22690Y3046790D03*
D27*
X17667Y2045540D02*
X17667Y2030300D01*
X-7733Y2030300D02*
X-7733Y2045540D01*
X-33133Y2045540D02*
X-33133Y2030300D01*
X-58533Y2030300D02*
X-58533Y2045540D01*
X-83933Y2045540D02*
X-83933Y2030300D01*
X160648Y2030300D02*
X160648Y2045540D01*
X135248Y2045540D02*
X135248Y2030300D01*
X109848Y2030300D02*
X109848Y2045540D01*
X84448Y2045540D02*
X84448Y2030300D01*
X59048Y2030300D02*
X59048Y2045540D01*
D13*
X140000Y2630000D03*
X140000Y2655400D03*
D19*
X-93800Y2700000D03*
X-246200Y2700000D03*
X-93800Y2769900D03*
X-246200Y2769900D03*
D18*
X-244800Y2419467D03*
X-92400Y2419467D03*
D17*
X-340000Y2956200D03*
X-340000Y2803800D03*
D11*
X-120000Y2852700D03*
X-120000Y2827300D03*
D28*
X-196750Y2830000D03*
D29*
X-283250Y2830000D03*
D20*
X-201900Y2876500D03*
X-201900Y2978100D03*
X-201900Y3003500D03*
X-278100Y3003500D03*
X-278100Y2978100D03*
X-278100Y2876500D03*
D18*
X-386200Y2620000D03*
X-233800Y2620000D03*
D30*
X-180000Y2632700D03*
X-199050Y2620000D03*
X-180000Y2607300D03*
D19*
X-302400Y2431567D03*
X-454800Y2431567D03*
D16*
X-252581Y2190424D03*
X-252581Y2342824D03*
D28*
X-418100Y2039000D03*
D29*
X-392700Y2039000D03*
X-341900Y2039000D03*
X-367300Y2039000D03*
D28*
X-788450Y2744900D03*
D29*
X-874950Y2744900D03*
D28*
X-596850Y2744900D03*
D29*
X-683350Y2744900D03*
D28*
X-406850Y2744900D03*
D29*
X-493350Y2744900D03*
D13*
X-117845Y2922245D03*
X-92445Y2922245D03*
D20*
X-283395Y2727518D03*
X-359595Y2727518D03*
D31*
X-283395Y2702118D03*
D20*
X-359595Y2702118D03*
X-283395Y2752918D03*
X-359595Y2752918D03*
X-388100Y2220000D03*
X-311900Y2220000D03*
D31*
X-388100Y2245400D03*
D20*
X-311900Y2245400D03*
X-388100Y2194600D03*
X-311900Y2194600D03*
D32*
X-751800Y2200000D03*
D33*
X-648200Y2200000D03*
D34*
X-300000Y2080000D03*
X-300000Y2020000D03*
D35*
X40000Y2090000D03*
X40000Y2565000D03*
D34*
X-280000Y2620000D03*
X-200000Y2700000D03*
D35*
X-440000Y2520000D03*
X-630000Y2520000D03*
X40000Y2070000D03*
X40000Y1940000D03*
X80000Y2550000D03*
X100000Y2830000D03*
X-239336Y2551044D03*
X-170000Y2820000D03*
X-170000Y3070000D03*
M02*
